<?xml version="1.0" standalone="no"?>
<!DOCTYPE svg PUBLIC "-//W3C//DTD SVG 20010904//EN"
 "http://www.w3.org/TR/2001/REC-SVG-20010904/DTD/svg10.dtd">
<svg version="1.0" xmlns="http://www.w3.org/2000/svg"
 width="750.000000pt" height="750.000000pt" viewBox="0 0 750.000000 750.000000"
 preserveAspectRatio="xMidYMid meet">
<metadata>
Created by potrace 1.11, written by Peter Selinger 2001-2013
</metadata>
<g transform="translate(0.000000,750.000000) scale(0.100000,-0.100000)"
fill="#000000" stroke="none">
<path d="M0 6866 c1 -592 2 -635 18 -639 16 -4 16 -5 0 -6 -17 -1 -18 -21 -18
-280 0 -258 1 -280 18 -284 16 -4 16 -5 0 -6 -17 -1 -18 -18 -18 -216 0 -200
1 -214 18 -209 16 5 16 5 0 -9 -30 -24 -26 -34 39 -101 12 -12 21 -31 19 -42
-2 -10 -1 -13 1 -6 5 15 45 -38 57 -74 5 -17 3 -22 -11 -20 -11 0 -19 -7 -20
-21 -8 -68 -19 -90 -45 -99 -45 -14 -58 -36 -58 -95 0 -41 4 -58 15 -63 8 -3
15 -13 15 -22 0 -10 -5 -14 -15 -11 -23 9 -18 -77 6 -99 25 -22 24 -51 -1 -64
-19 -10 -20 -21 -20 -221 0 -196 1 -211 20 -231 27 -29 27 -62 0 -55 -17 4
-20 0 -20 -30 0 -30 2 -34 14 -23 8 6 12 18 9 26 -4 10 3 14 22 14 31 0 81
-35 65 -45 -6 -3 -8 -11 -4 -16 4 -6 11 -6 19 1 9 8 15 8 20 0 3 -6 10 -8 14
-6 4 3 22 -11 40 -29 34 -37 61 -45 61 -20 0 21 17 19 30 -5 8 -16 8 -20 -3
-20 -9 0 -14 -10 -14 -25 0 -15 5 -25 13 -25 27 0 14 -29 -13 -32 -20 -2 -29
-9 -31 -25 -3 -18 0 -22 15 -16 10 4 21 11 24 15 3 5 19 10 35 10 22 1 42 -10
74 -40 25 -23 50 -42 56 -42 6 0 17 -11 24 -25 11 -20 10 -28 -3 -48 -8 -13
-17 -37 -19 -53 -2 -16 -7 -28 -13 -27 -5 1 -11 -11 -12 -25 -1 -15 -3 -36 -5
-47 -2 -14 3 -20 19 -21 19 -1 20 2 12 24 -10 26 -4 62 11 62 4 0 6 8 3 19 -3
10 0 22 6 25 6 4 11 18 11 32 0 36 22 29 76 -24 50 -49 56 -67 41 -122 -4 -14
-3 -41 1 -59 7 -34 8 -33 22 32 10 50 17 66 28 62 7 -3 16 -5 18 -5 2 0 4 -7
4 -15 0 -8 -6 -15 -14 -15 -8 0 -18 -4 -21 -10 -8 -12 37 -9 46 4 8 11 26 0
38 -23 13 -23 -68 -118 -92 -108 -12 4 -17 1 -17 -9 0 -30 46 -6 109 56 33 33
61 63 61 68 0 4 20 28 45 52 53 52 53 51 58 -80 2 -53 9 -105 16 -118 9 -16 9
-27 1 -43 -6 -11 -11 -35 -10 -52 4 -64 2 -68 -25 -61 -20 5 -24 3 -19 -10 3
-9 10 -17 15 -17 5 -1 15 -2 21 -3 25 -2 18 -32 -11 -49 -16 -9 -33 -17 -38
-17 -4 1 4 8 20 16 15 8 27 19 27 24 0 15 -32 11 -54 -5 -25 -19 -36 -19 -36
0 0 19 -7 19 -26 0 -12 -11 -12 -15 -3 -15 9 0 7 -6 -4 -17 -17 -17 -19 -17
-28 0 -8 13 -17 16 -32 11 -20 -6 -21 -5 -7 12 8 10 23 25 33 32 9 7 15 17 12
22 -3 4 2 11 11 14 9 3 12 2 9 -5 -6 -9 37 -3 57 8 6 3 38 61 38 70 0 1 -11 3
-25 3 -14 0 -25 -4 -25 -10 0 -5 -6 -9 -12 -7 -7 1 -12 -6 -12 -15 1 -10 -2
-15 -7 -12 -13 8 -11 42 3 46 7 3 15 32 18 66 4 41 2 61 -5 59 -5 -2 -10 -12
-10 -23 -1 -26 -15 -64 -23 -62 -4 2 -20 -10 -36 -25 -27 -26 -28 -29 -15 -54
11 -20 11 -27 2 -30 -7 -3 -13 -9 -13 -14 0 -4 8 -5 18 -2 16 7 16 6 0 -11
-10 -9 -22 -15 -27 -12 -10 7 -8 -45 3 -63 12 -18 -82 -121 -110 -121 -8 0
-14 -4 -14 -10 0 -5 9 -10 19 -10 11 0 28 -3 38 -6 11 -4 14 -3 6 3 -8 6 -6
14 7 31 10 12 23 22 28 22 6 0 13 9 17 19 3 11 16 26 29 34 23 16 23 15 16
-23 -5 -25 -4 -37 2 -34 6 4 5 -3 -1 -15 -7 -11 -15 -21 -20 -21 -4 0 -14 -12
-22 -27 -8 -16 -20 -34 -27 -42 -12 -12 -15 -12 -23 0 -5 8 -9 20 -9 27 0 6
-4 12 -9 12 -5 0 -16 2 -23 5 -8 3 -24 -8 -37 -26 l-23 -31 26 -27 c16 -17 28
-42 31 -71 3 -24 11 -50 17 -57 6 -7 9 -15 7 -17 -9 -7 -107 -48 -149 -62 -25
-8 -53 -19 -62 -24 -29 -16 -40 -13 -28 9 15 29 12 124 -4 147 -13 17 -26 19
-128 17 -106 -1 -118 -3 -176 -33 l-62 -31 0 -1055 c0 -930 2 -1054 15 -1054
17 0 21 -45 5 -55 -6 -3 -7 -17 -4 -30 3 -12 1 -26 -5 -29 -7 -5 -11 -77 -11
-217 l0 -209 941 0 940 0 127 86 c132 90 162 112 248 176 28 21 53 38 56 38 4
0 68 42 145 94 76 52 210 143 298 202 l159 107 -49 14 c-28 7 -83 18 -124 24
-41 5 -78 12 -82 15 -8 5 -266 52 -336 61 -37 5 -48 1 -103 -37 -35 -25 -64
-39 -69 -34 -8 9 -46 118 -113 322 l-31 94 -56 25 c-107 48 -346 165 -568 277
-13 6 -23 14 -23 19 0 4 -5 7 -11 7 -6 0 -52 20 -103 44 -133 63 -146 65 -184
21 -17 -19 -35 -35 -40 -35 -4 0 -23 -16 -42 -35 -19 -20 -50 -42 -69 -50 -35
-16 -87 -64 -83 -77 1 -5 -2 -8 -7 -8 -5 0 -12 -11 -15 -25 -7 -29 -61 -44
-95 -26 -27 15 -27 37 -1 44 13 3 20 14 20 29 0 16 16 39 45 67 25 23 45 47
45 54 1 26 67 85 128 112 51 24 42 48 -29 84 -80 40 -87 47 -95 87 -6 34 -24
57 -24 32 0 -7 -7 -21 -14 -31 -13 -17 -21 -14 -137 43 -67 33 -124 58 -127
56 -2 -2 10 -47 27 -100 36 -112 38 -128 14 -119 -13 5 -15 3 -9 -12 7 -18 6
-18 -14 0 -11 10 -20 23 -20 30 0 6 -18 38 -40 69 l-41 58 27 66 c28 70 98
224 162 354 28 57 36 82 29 94 -6 11 -6 15 1 10 5 -3 22 20 38 52 15 31 33 66
41 78 l13 21 51 -24 c89 -43 208 -50 292 -18 12 5 17 2 17 -8 0 -20 80 -33
129 -21 l36 9 11 85 c6 47 21 105 33 128 11 22 21 48 21 56 0 8 6 16 13 18 14
5 17 174 4 220 -6 25 -5 28 15 26 13 -1 51 5 86 12 67 15 70 18 75 90 2 28 7
36 25 38 12 2 22 8 22 14 0 6 -9 8 -20 5 -32 -8 -43 17 -37 84 4 47 13 73 41
115 33 49 34 54 16 54 -13 0 -20 -7 -20 -18 0 -32 -20 -43 -50 -27 -28 14 -34
14 -122 -18 -29 -10 -38 -27 -15 -27 8 0 7 -3 -3 -10 -9 -6 -18 -6 -24 0 -13
13 -66 13 -66 0 0 -5 -9 -10 -20 -10 -26 0 -25 -4 10 -48 36 -46 62 -116 54
-148 -6 -25 -34 -34 -34 -10 0 11 -60 78 -104 114 -9 7 -16 23 -16 36 0 31
-25 53 -34 31 -3 -9 -11 -15 -18 -14 -7 2 -28 -1 -46 -5 -22 -5 -38 -4 -45 3
-8 8 -8 11 0 11 6 0 13 7 15 16 4 20 73 45 87 31 31 -31 38 33 21 183 -5 47
-7 92 -5 101 4 11 27 21 68 29 34 7 73 19 87 26 14 7 38 15 54 19 25 5 29 18
5 21 -5 1 -12 2 -16 3 -9 2 62 48 95 61 22 10 31 30 12 30 -5 0 -10 5 -10 11
0 8 4 8 14 0 8 -6 18 -11 22 -10 18 3 37 -1 31 -7 -10 -10 34 -40 66 -46 32
-6 55 20 35 40 -17 17 -3 25 20 13 26 -14 85 -15 77 -1 -12 19 29 60 67 66 21
4 35 10 32 15 -3 5 5 9 17 9 12 0 50 16 85 35 34 19 69 35 78 35 9 0 16 5 16
10 0 13 -26 13 -51 -1 -11 -6 -28 -12 -37 -14 -9 -2 -28 -7 -42 -10 l-25 -7
25 21 c14 11 44 30 67 40 23 11 44 25 48 31 10 17 25 11 18 -7 -5 -15 -3 -16
8 -5 7 6 21 12 31 12 10 0 18 4 18 8 0 13 -48 32 -65 26 -8 -4 -15 -3 -15 1 0
11 23 50 34 57 16 11 48 10 41 -2 -3 -5 -15 -10 -26 -10 -12 0 -19 -5 -16 -12
11 -32 147 17 147 53 0 10 5 19 10 19 6 0 10 6 10 13 0 9 -13 14 -35 15 -25 1
-39 -5 -53 -23 -20 -25 -42 -33 -42 -15 0 6 7 10 16 10 10 0 14 6 10 15 -6 17
19 45 40 45 8 0 14 5 14 10 0 12 -26 12 -93 1 -34 -6 -50 -4 -58 5 -7 9 -2 14
21 19 25 6 29 9 19 21 -7 9 -20 12 -37 7 -13 -3 -34 -7 -46 -8 -11 -1 -24 -3
-28 -4 -3 0 -5 -12 -4 -25 3 -22 -2 -24 -81 -36 -58 -8 -88 -9 -95 -2 -7 7 -4
14 10 21 14 7 18 17 15 31 -7 26 -22 25 -63 -5 -25 -19 -46 -25 -84 -25 -38 0
-55 -5 -73 -22 -19 -17 -23 -19 -17 -5 3 10 1 17 -5 17 -12 0 40 73 90 128 17
18 28 36 24 40 -4 4 -10 1 -12 -6 -3 -7 -12 -18 -20 -25 -8 -7 -25 -21 -36
-33 -25 -23 -85 -50 -94 -41 -8 9 17 67 30 67 7 0 7 4 -1 12 -18 18 -15 24 18
38 17 7 30 16 30 21 0 5 6 9 14 9 7 0 16 10 19 21 4 15 11 20 21 16 9 -4 16
-2 16 4 0 5 12 15 28 21 21 9 23 12 10 15 -10 3 -18 9 -18 14 0 14 72 7 88 -8
16 -15 46 -6 34 11 -10 12 -12 76 -3 76 4 0 12 -10 20 -21 11 -18 11 -23 -1
-30 -8 -5 -8 -9 -2 -9 16 0 37 27 30 39 -3 5 0 12 6 14 8 4 7 6 -4 6 -9 1 -23
7 -30 14 -19 19 -73 44 -110 52 -18 4 -58 15 -88 25 -89 30 -130 35 -130 17 0
-9 12 -25 26 -36 19 -15 22 -21 11 -21 -9 0 -32 13 -50 30 -34 29 -67 40 -67
20 0 -5 -18 8 -40 30 -22 22 -40 33 -40 26 0 -23 -36 -7 -50 22 -11 24 -13 25
-22 9 -5 -10 -7 -26 -4 -35 3 -10 -1 -8 -10 6 -9 12 -23 22 -31 22 -7 0 -16 7
-19 15 -4 8 -12 15 -20 15 -8 0 -14 5 -14 10 0 6 5 10 10 10 6 0 4 14 -5 31
-9 17 -19 28 -23 25 -3 -4 0 -12 6 -18 13 -13 16 -38 4 -38 -4 0 -16 16 -26
35 -11 19 -24 35 -29 35 -6 0 -8 3 -4 6 3 4 0 13 -8 21 -17 16 -20 33 -6 33 8
0 80 -69 113 -108 11 -14 13 -22 5 -25 -6 -2 3 -9 21 -15 40 -14 42 -2 7 44
-14 18 -25 35 -25 38 0 3 -11 17 -25 32 -27 29 -33 48 -13 42 13 -5 106 -118
107 -131 1 -4 12 -19 25 -34 24 -25 24 -25 31 -4 4 14 -1 31 -14 50 -27 38
-28 62 -1 33 11 -12 20 -24 20 -27 0 -10 44 -65 52 -65 4 0 8 9 8 20 0 11 -4
20 -10 20 -5 0 -10 7 -10 15 0 17 -20 57 -35 67 -5 4 -7 10 -3 13 11 11 45
-13 82 -59 35 -42 36 -44 21 -72 -20 -38 -19 -56 3 -52 12 3 16 12 14 31 -2
15 1 35 6 44 10 17 -7 60 -30 74 -7 4 -9 12 -4 16 5 4 11 2 13 -4 3 -7 12 -13
20 -13 9 0 38 -23 64 -51 52 -53 66 -49 24 7 -15 20 -21 35 -15 39 15 9 61
-30 89 -78 30 -50 39 -34 17 30 -12 34 -13 50 -5 59 18 21 51 -1 44 -29 -5
-18 3 -31 35 -61 39 -35 68 -44 41 -12 -7 9 -8 16 -2 20 5 4 20 -8 32 -26 37
-55 72 -88 91 -88 10 0 18 5 18 10 0 6 -4 10 -10 10 -5 0 -10 5 -10 12 0 6 -7
20 -17 30 -9 10 -12 18 -7 18 10 0 44 -36 44 -45 0 -8 53 -59 92 -88 40 -31
87 -44 97 -28 6 9 14 8 34 -2 18 -10 23 -17 16 -28 -5 -8 -9 -17 -9 -20 0 -11
50 -20 71 -14 26 9 15 24 -14 18 -16 -3 -18 -2 -9 5 8 5 14 12 14 15 0 19 12
47 19 47 5 0 9 5 9 11 0 7 -10 5 -25 -5 -16 -10 -34 -14 -50 -10 -25 6 -25 7
-9 25 10 11 30 19 50 19 18 0 36 5 40 11 5 9 -4 10 -30 5 -38 -7 -66 5 -66 28
0 6 5 4 10 -4 5 -8 10 -13 11 -10 0 3 2 13 4 23 3 15 -1 18 -20 13 -19 -5 -23
-3 -19 9 4 8 7 15 8 15 0 0 16 -4 33 -9 18 -5 35 -6 38 -2 2 5 -23 14 -58 20
-66 13 -112 29 -105 36 2 2 44 -2 94 -9 75 -11 91 -11 103 0 8 7 11 17 7 21
-4 4 -11 1 -16 -7 -5 -8 -12 -11 -16 -7 -4 4 -2 13 4 19 19 19 13 98 -8 98 -4
0 -8 -12 -9 -27 0 -16 -1 -37 -1 -48 -1 -24 -50 -52 -50 -29 0 8 6 23 12 34
10 15 10 22 0 32 -9 9 -12 8 -12 -7 -1 -19 -1 -19 -11 -2 -8 14 -18 16 -52 11
-52 -8 -55 -11 -31 -28 28 -21 9 -32 -29 -18 -42 15 -60 15 -75 0 -12 -12 7
-28 51 -44 9 -3 17 -10 17 -14 0 -4 19 -11 43 -15 26 -4 36 -9 27 -13 -23 -10
-22 -41 1 -35 21 6 27 -13 7 -20 -10 -3 -9 -8 2 -22 14 -17 13 -18 -25 -11
-35 6 -38 5 -22 -7 22 -18 22 -38 0 -30 -30 10 -52 34 -46 50 4 9 -2 16 -16
20 -24 6 -26 14 -9 31 9 9 5 12 -18 12 -16 0 -35 4 -43 9 -15 10 -19 63 -7 99
5 15 4 22 -4 20 -25 -6 -20 22 4 28 31 7 32 14 6 37 -20 16 -33 17 -92 0 -13
-3 -16 0 -11 12 5 15 -1 17 -43 14 -53 -4 -76 13 -29 21 25 4 26 6 12 18 -14
12 -25 11 -72 -7 -60 -23 -105 -27 -105 -11 0 6 8 13 18 16 9 3 25 10 34 15
10 5 25 9 34 9 8 0 14 6 11 13 -5 15 -41 12 -90 -10 -49 -21 -58 -10 -21 28
l29 31 -21 17 c-19 15 -20 19 -7 37 8 10 19 18 24 17 5 -2 11 7 14 20 8 32 39
49 68 38 14 -6 29 -6 38 0 10 6 7 9 -13 9 -30 0 -39 24 -13 34 29 11 16 28
-15 21 -33 -7 -43 11 -12 21 67 23 93 44 55 44 -10 0 -25 5 -33 10 -13 9 -13
12 4 25 22 17 18 25 -31 50 -21 11 -47 28 -58 39 -11 10 -30 25 -42 33 -31 21
-21 32 28 31 22 0 43 2 46 6 4 3 -12 6 -34 6 -44 0 -68 26 -38 42 18 11 21 42
3 34 -7 -3 -21 -9 -30 -12 -10 -4 -18 -13 -18 -21 0 -10 -6 -13 -16 -9 -54 21
-64 19 -64 -10 0 -26 -1 -27 -14 -9 -13 18 -15 18 -39 2 -32 -21 -61 -22 -76
-3 -7 8 -30 17 -51 21 -54 9 -84 37 -76 70 5 20 0 32 -21 54 -17 17 -27 36
-25 49 2 12 0 22 -5 22 -4 0 -8 10 -9 23 -3 55 -36 167 -50 167 -7 0 -24 15
-38 33 -46 57 -70 77 -93 77 -23 0 -99 36 -109 51 -3 5 -14 9 -25 9 -11 0 -30
10 -42 23 -13 12 -35 28 -50 34 -20 9 -27 20 -27 41 0 33 29 71 48 64 8 -2 24
0 35 6 28 13 146 30 217 32 77 1 87 6 93 45 5 33 37 80 37 56 0 -19 35 -12 48
9 9 16 23 20 62 20 38 0 50 4 50 15 0 8 6 15 13 16 38 2 72 11 75 20 2 5 19 9
38 9 33 0 34 -1 35 -42 1 -36 2 -39 8 -18 5 14 6 40 3 57 -4 28 -1 34 22 42
17 7 24 15 20 26 -7 17 11 21 21 5 3 -5 15 -10 25 -10 16 0 19 -7 18 -46 0
-32 5 -51 18 -64 11 -10 37 -40 59 -66 43 -50 110 -120 164 -169 27 -25 34
-27 42 -15 8 11 9 7 4 -15 -4 -23 -1 -33 15 -43 11 -7 20 -8 20 -3 0 6 -5 13
-12 17 -8 5 -6 11 7 20 12 9 16 20 11 38 -8 31 4 34 21 7 8 -12 33 -24 66 -31
32 -6 59 -18 67 -30 22 -30 42 -26 34 6 -4 15 -3 25 2 21 5 -3 10 8 11 23 2
22 -6 33 -37 55 -22 15 -37 32 -34 37 4 6 10 6 17 -1 6 -6 21 -11 33 -11 22 0
26 6 40 63 5 20 4 21 -9 4 -13 -16 -15 -15 -21 10 -4 17 -28 46 -60 73 -52 43
-61 60 -30 60 8 0 14 -8 14 -18 0 -27 10 -33 27 -17 25 25 53 19 54 -12 l0
-28 10 24 c9 22 4 31 -40 75 -128 130 -231 241 -231 248 0 4 -4 8 -10 8 -5 0
-10 -8 -10 -17 0 -15 -2 -16 -10 -3 -6 9 -5 17 3 22 8 5 5 14 -8 30 -33 38
-49 47 -70 41 -17 -5 -18 -4 -6 11 10 12 10 16 1 16 -7 0 -10 6 -7 14 4 10 -5
19 -24 28 -16 7 -29 17 -29 23 0 6 -11 22 -25 37 -30 32 -31 38 -7 32 9 -3 42
10 72 29 48 28 55 37 53 62 -1 15 -23 64 -49 109 l-47 80 12 62 c23 125 11
190 -27 152 -9 -9 -15 -9 -24 0 -7 7 -18 12 -26 12 -10 0 -7 -7 8 -23 26 -27
39 -129 19 -153 -17 -21 -31 3 -16 27 6 10 8 21 4 25 -13 14 -31 -16 -31 -51
0 -28 -3 -34 -17 -30 -9 3 -28 1 -43 -4 -33 -13 -35 3 -4 31 13 11 17 17 11
13 -8 -3 -13 0 -13 9 0 8 5 16 11 18 9 3 9 10 0 27 -7 13 -11 32 -8 42 3 10 1
19 -4 19 -5 0 -11 -12 -15 -27 -21 -96 -38 -143 -53 -147 -27 -8 -123 -24
-178 -31 -55 -7 -68 -19 -33 -30 11 -4 31 -16 43 -28 12 -12 34 -28 50 -36 15
-8 27 -19 27 -25 -1 -13 -91 -76 -108 -76 -7 0 -12 -4 -12 -10 0 -16 51 -24
72 -11 25 15 43 4 24 -15 -8 -8 -20 -14 -26 -14 -23 0 -3 -25 23 -28 15 -2 27
-7 27 -11 0 -13 -48 -19 -58 -9 -6 6 -12 6 -16 -1 -12 -19 -26 -12 -26 14 0
30 -11 32 -35 5 -18 -20 -18 -21 1 -34 18 -14 82 -14 104 -1 6 3 7 -1 4 -10
-15 -39 -74 -45 -136 -15 -48 23 -48 23 -48 10 0 -5 7 -10 15 -10 8 0 15 -4
15 -9 0 -5 9 -11 20 -14 34 -9 22 -27 -17 -27 -21 -1 -56 -7 -78 -15 -52 -19
-71 -19 -79 1 -9 22 -8 23 14 17 24 -6 26 4 3 29 -13 15 -14 23 -5 43 6 14 9
31 6 39 -3 8 9 27 28 45 31 29 32 31 11 31 -14 0 -23 6 -23 15 0 9 9 15 23 15
23 0 57 27 57 46 0 5 -13 20 -30 34 l-29 25 -5 140 c-3 77 -5 148 -5 158 -1
14 -10 17 -54 17 -29 0 -58 -5 -65 -12 -8 -8 -15 -8 -24 0 -9 7 -144 11 -421
12 l-407 1 0 -635z m507 602 c-3 -8 -6 -5 -6 6 -1 11 2 17 5 13 3 -3 4 -12 1
-19z m341 -31 c3 -16 1 -17 -17 -5 -25 16 -27 31 -4 26 10 -2 19 -11 21 -21z
m108 -115 c-11 -10 -15 4 -8 28 l7 25 3 -23 c2 -13 1 -26 -2 -30z m-121 28 c3
-5 1 -10 -4 -10 -6 0 -11 5 -11 10 0 6 2 10 4 10 3 0 8 -4 11 -10z m-75 -9
c-8 -6 -18 -7 -23 -4 -5 3 -13 -1 -18 -8 -7 -11 -9 -10 -9 4 0 13 8 17 33 17
23 0 28 -3 17 -9z m778 -122 c-18 -11 -31 1 -18 16 8 9 8 15 0 20 -6 3 -8 11
-4 16 3 6 13 -2 20 -17 11 -21 12 -29 2 -35z m-1269 -150 c14 -42 14 -49 -4
-49 -8 0 -15 8 -16 18 0 10 -3 12 -6 5 -6 -16 -25 -16 -56 -2 -21 10 -23 14
-13 35 9 19 19 24 48 24 32 0 37 -4 47 -31z m1081 -7 c-1 -21 -30 -43 -49 -37
-15 5 -21 2 -21 -9 0 -9 6 -16 14 -16 20 0 31 -19 18 -32 -7 -7 -14 -3 -21 11
-10 18 -15 19 -31 9 -27 -17 -38 -1 -12 18 21 15 20 41 -2 56 -6 4 -7 11 -2
15 5 4 11 2 13 -4 6 -17 28 -16 43 2 9 11 17 12 31 4 10 -5 19 -13 19 -17z
m15 -42 c-4 -17 -9 -29 -12 -26 -3 2 -2 19 2 36 4 17 9 29 12 26 3 -2 2 -19
-2 -36z m112 -35 c3 -9 -1 -37 -8 -63 -7 -26 -12 -55 -12 -64 1 -10 -2 -18 -6
-18 -5 0 -11 -19 -14 -42 -13 -95 -53 -258 -64 -263 -8 -2 -13 4 -13 15 0 11
-4 20 -10 20 -5 0 -10 7 -10 15 0 21 -62 113 -80 119 -8 3 -34 17 -58 31 -23
14 -49 25 -57 25 -8 0 -15 5 -15 10 0 6 -16 10 -36 10 -48 0 -36 14 42 51 35
17 77 41 92 53 34 29 129 89 162 104 37 16 80 14 87 -3z m40 -117 c-3 -8 -6
-5 -6 6 -1 11 2 17 5 13 3 -3 4 -12 1 -19z m43 -23 c-7 -8 -19 -15 -26 -15 -8
0 -14 -6 -14 -14 0 -8 -7 -16 -15 -20 -8 -3 -14 0 -12 6 3 18 33 46 54 51 10
3 20 5 22 6 2 0 -2 -6 -9 -14z m45 -54 c-3 -6 -11 -11 -16 -11 -5 0 -4 6 3 14
14 16 24 13 13 -3z m-605 -16 c-14 -8 -33 -14 -43 -15 -10 0 -29 -7 -43 -16
-31 -21 -41 -12 -26 21 11 23 17 25 74 25 60 -1 62 -1 38 -15z m677 9 c-3 -3
-12 -4 -19 -1 -8 3 -5 6 6 6 11 1 17 -2 13 -5z m-70 -51 c-3 -10 -5 -4 -5 12
0 17 2 24 5 18 2 -7 2 -21 0 -30z m76 12 c4 -8 2 -17 -3 -20 -6 -4 -10 3 -10
14 0 25 6 27 13 6z m-734 -28 c-16 -16 -69 -28 -69 -16 0 4 13 10 30 14 16 4
33 11 36 16 3 6 8 8 11 5 3 -3 -1 -11 -8 -19z m231 13 c0 -5 6 -10 14 -10 8 0
17 -4 20 -8 2 -4 -32 -9 -76 -9 -70 -2 -78 0 -67 13 8 10 21 13 41 9 17 -4 28
-2 28 4 0 6 9 11 20 11 11 0 20 -4 20 -10z m530 -20 c0 -5 -4 -10 -10 -10 -5
0 -10 5 -10 10 0 6 5 10 10 10 6 0 10 -4 10 -10z m-1460 -25 c6 -8 9 -19 5
-25 -7 -11 -34 15 -35 33 0 12 17 8 30 -8z m-40 -20 c0 -7 -7 -15 -15 -19 -15
-5 -22 24 -9 37 9 9 24 -2 24 -18z m1073 -54 c-4 -17 -13 -21 -44 -21 -35 0
-39 -3 -39 -25 0 -14 -4 -25 -10 -25 -5 0 -10 9 -10 21 0 11 -5 29 -10 40 -10
18 -7 19 41 19 29 0 49 3 46 6 -3 4 -1 16 5 27 l11 21 8 -21 c4 -12 5 -30 2
-42z m317 49 c0 -14 -24 -22 -52 -18 l-23 5 25 11 c32 14 50 15 50 2z m198
-19 c3 -8 -1 -12 -9 -9 -7 2 -15 10 -17 17 -3 8 1 12 9 9 7 -2 15 -10 17 -17z
m-361 -13 c-3 -8 -6 -5 -6 6 -1 11 2 17 5 13 3 -3 4 -12 1 -19z m-1270 -20
c-3 -8 -6 -5 -6 6 -1 11 2 17 5 13 3 -3 4 -12 1 -19z m87 8 c-3 -8 -12 -12
-21 -9 -12 5 -12 7 -1 14 20 13 28 11 22 -5z m1503 -8 c-3 -8 -6 -5 -6 6 -1
11 2 17 5 13 3 -3 4 -12 1 -19z m-437 -17 c0 -20 -6 -30 -20 -34 -21 -5 -24 3
-14 41 9 33 34 28 34 -7z m560 -30 c0 -5 -7 -11 -14 -14 -10 -4 -13 -1 -9 9 6
15 23 19 23 5z m-55 -21 c0 -8 11 -17 25 -20 29 -7 34 -33 8 -38 -11 -2 -18 3
-18 11 0 8 -8 17 -18 19 -10 3 -18 15 -19 27 -1 13 3 21 10 18 7 -2 12 -10 12
-17z m95 -10 c0 -5 -6 -10 -14 -10 -8 0 -18 5 -21 10 -3 6 3 10 14 10 12 0 21
-4 21 -10z m40 -50 c0 -18 -19 -11 -30 11 -11 19 -10 20 9 9 12 -6 21 -15 21
-20z m-433 -17 c-4 -3 1 -12 11 -19 15 -12 15 -15 2 -23 -11 -8 -17 -5 -22 10
-8 20 -3 39 9 39 4 0 3 -3 0 -7z m91 -59 l23 -16 -21 -15 c-27 -19 -48 -11
-45 19 4 35 8 36 43 12z m112 -29 c-1 -5 -15 -9 -33 -7 -35 3 -41 7 -33 20 7
12 67 0 66 -13z m130 -47 c0 -4 -9 -6 -20 -5 -21 1 -24 6 -14 31 6 15 8 15 20
-1 7 -10 14 -21 14 -25z m-905 -18 c4 -6 -19 -9 -62 -8 l-68 1 60 7 c33 4 61
7 62 8 1 1 5 -2 8 -8z m950 -7 c18 -14 18 -15 2 -9 -10 3 -23 6 -28 6 -5 0 -9
5 -9 10 0 14 12 12 35 -7z m-1835 -53 c0 -6 11 -15 25 -20 14 -5 25 -14 25
-20 0 -14 -6 -13 -45 13 -37 24 -44 37 -20 37 8 0 15 -5 15 -10z m1650 -20 c0
-5 -2 -10 -4 -10 -3 0 -8 5 -11 10 -3 6 -1 10 4 10 6 0 11 -4 11 -10z m-1661
-539 c32 -32 44 -61 32 -75 -13 -15 -53 -14 -59 2 -2 7 3 10 12 6 13 -5 16 1
16 25 0 24 -4 31 -19 31 -21 0 -34 13 -24 24 11 10 22 7 42 -13z m41 -118 c0
-10 3 -28 6 -40 9 -34 -11 -28 -35 10 -19 30 -19 33 -3 39 27 11 32 9 32 -9z
m1280 -103 c0 -5 -4 -10 -10 -10 -5 0 -10 5 -10 10 0 6 5 10 10 10 6 0 10 -4
10 -10z m60 -54 c0 -2 -9 -6 -20 -9 -11 -3 -20 -1 -20 4 0 5 9 9 20 9 11 0 20
-2 20 -4z m-1390 -68 c0 -7 -5 -20 -10 -28 -8 -12 -10 -9 -10 13 0 15 5 27 10
27 6 0 10 -6 10 -12z m1460 2 c0 -5 -7 -10 -16 -10 -8 0 -12 5 -9 10 3 6 10
10 16 10 5 0 9 -4 9 -10z m79 -11 c-10 -6 -10 -11 1 -23 7 -9 9 -20 5 -24 -4
-4 -10 -1 -13 7 -2 7 -13 22 -22 31 -22 22 -18 29 16 22 18 -3 22 -7 13 -13z
m-1526 -89 c-3 -11 -9 -20 -15 -20 -5 0 -4 9 2 20 6 11 12 20 14 20 2 0 2 -9
-1 -20z m95 -28 c2 -7 -2 -10 -12 -6 -9 3 -16 11 -16 16 0 13 23 5 28 -10z
m-51 -15 c-8 -6 -17 -23 -19 -37 -3 -25 -3 -25 -10 -2 -4 16 0 28 15 42 11 11
23 18 26 15 2 -3 -3 -11 -12 -18z m-66 -20 c-8 -8 -11 -7 -11 4 0 20 13 34 18
19 3 -7 -1 -17 -7 -23z m176 21 c-2 -7 -9 -12 -15 -11 -5 1 -13 -4 -16 -13 -5
-12 1 -14 32 -9 20 3 30 2 22 -1 -8 -4 -18 -12 -22 -18 -5 -8 -13 -7 -28 2
-27 16 -30 16 -30 -10 0 -19 -2 -20 -10 -8 -14 22 -12 40 5 40 8 0 15 6 15 14
0 13 14 21 43 25 5 0 7 -5 4 -11z m1220 -34 c-3 -3 -12 -4 -19 -1 -8 3 -5 6 6
6 11 1 17 -2 13 -5z m60 -16 c-3 -8 -6 -5 -6 6 -1 11 2 17 5 13 3 -3 4 -12 1
-19z m-42 -17 c20 -5 30 -13 30 -26 0 -14 -14 -23 -55 -35 -30 -10 -74 -27
-96 -39 -23 -12 -59 -24 -80 -27 l-39 -5 25 21 c95 82 117 112 88 123 -20 6
93 -4 127 -12z m-145 0 c0 -5 -9 -11 -20 -14 -20 -5 -26 3 -13 16 9 10 33 8
33 -2z m-1171 -54 c5 -12 12 -33 16 -47 7 -22 7 -23 -9 -7 -23 23 -46 69 -40
79 8 12 24 0 33 -25z m1352 -34 c12 -15 12 -16 -3 -10 -11 4 -21 0 -27 -11 -6
-9 -11 -14 -11 -10 0 3 -23 -3 -51 -13 -68 -26 -61 -4 10 33 63 33 64 33 82
11z m-310 -66 c-16 -16 -26 0 -10 19 9 11 15 12 17 4 2 -6 -1 -17 -7 -23z
m-921 8 c34 -18 39 -35 11 -35 -11 0 -27 -3 -36 -6 -12 -5 -16 -2 -13 12 2 15
-2 18 -19 16 -24 -3 -32 13 -10 21 22 9 37 7 67 -8z m985 -25 c5 -8 11 -7 21
1 11 9 15 8 20 -5 4 -9 4 -20 0 -23 -9 -10 -59 10 -64 25 -5 15 14 16 23 2z
m197 -12 c-7 -7 -12 -8 -12 -2 0 14 12 26 19 19 2 -3 -1 -11 -7 -17z m-48 -16
c50 -14 45 -34 -6 -26 -59 9 -90 22 -83 34 6 10 33 8 89 -8z m-791 -33 c23
-40 2 -33 -25 9 -13 21 -15 30 -7 27 8 -3 22 -19 32 -36z m57 11 c0 -5 -4 -10
-10 -10 -5 0 -10 5 -10 10 0 6 5 10 10 10 6 0 10 -4 10 -10z m310 -21 c0 -6
-4 -7 -10 -4 -5 3 -10 11 -10 16 0 6 5 7 10 4 6 -3 10 -11 10 -16z m546 -11
c-15 -8 -60 4 -70 20 -3 5 14 5 40 -1 32 -8 41 -13 30 -19z m-136 6 c0 -2 -12
-4 -27 -4 -21 0 -24 3 -14 9 13 8 41 5 41 -5z m190 1 c0 -8 -7 -15 -15 -15
-16 0 -20 12 -8 23 11 12 23 8 23 -8z m-855 -42 c7 -7 11 -22 8 -33 -3 -11 0
-20 6 -20 6 0 11 7 11 15 0 8 7 15 16 15 12 0 14 -4 7 -12 -5 -7 -10 -26 -11
-43 -1 -16 -7 -34 -12 -39 -6 -6 -10 -33 -10 -61 0 -52 -22 -95 -49 -95 -18 0
-13 48 7 59 14 8 15 12 5 22 -7 7 -13 22 -13 34 0 12 -5 26 -12 33 -9 9 -8 12
4 12 9 0 20 -5 23 -10 4 -6 11 -8 16 -4 7 4 6 10 0 18 -6 7 -8 29 -4 49 4 28
1 42 -12 57 -11 13 -15 25 -10 37 8 17 8 17 13 -1 2 -11 10 -25 17 -33z m952
23 c-3 -9 -20 -11 -57 -7 -5 1 -10 5 -10 10 0 5 16 9 35 8 20 -1 34 -6 32 -11z
m-1137 -42 c0 -6 7 -14 15 -18 17 -6 20 -26 4 -26 -6 0 -16 14 -22 30 -6 17
-15 30 -19 30 -4 0 -8 8 -8 18 1 15 2 15 15 -2 8 -11 15 -25 15 -32z m935 36
c3 -5 -1 -10 -9 -10 -9 0 -16 5 -16 10 0 6 4 10 9 10 6 0 13 -4 16 -10z m265
-9 c0 -5 -11 -11 -25 -13 -17 -4 -25 -1 -25 8 0 8 11 14 25 14 14 0 25 -4 25
-9z m-180 -11 c0 -5 -4 -10 -10 -10 -5 0 -10 5 -10 10 0 6 5 10 10 10 6 0 10
-4 10 -10z m253 3 c4 -3 2 -12 -3 -19 -12 -13 -50 -7 -50 8 0 5 4 7 9 3 5 -3
12 -1 16 5 7 11 19 13 28 3z m-916 -50 c-3 -3 -11 -2 -17 2 -9 6 -9 10 1 16
14 8 27 -7 16 -18z m-54 -27 c32 -8 49 -7 43 3 -4 5 3 7 14 4 12 -3 20 0 20 6
0 7 5 9 11 5 8 -5 8 -9 -1 -14 -8 -5 -5 -12 11 -23 12 -9 26 -14 30 -11 9 5
41 -37 34 -44 -2 -3 -11 1 -19 7 -12 11 -14 8 -12 -16 2 -15 5 -27 7 -26 29
14 42 13 60 -3 34 -30 92 -114 85 -122 -4 -3 -11 0 -16 8 -6 10 -12 11 -22 3
-7 -6 -42 -13 -78 -16 -56 -4 -295 -9 -340 -7 -8 0 4 9 27 19 55 26 77 68 70
134 -6 48 6 90 37 123 9 9 12 8 14 -6 2 -10 13 -21 25 -24z m832 34 c3 -5 2
-10 -4 -10 -5 0 -13 5 -16 10 -3 6 -2 10 4 10 5 0 13 -4 16 -10z m42 -7 c-9
-9 -19 -14 -23 -11 -10 10 6 28 24 28 15 0 15 -1 -1 -17z m351 6 c-2 -6 -8
-10 -13 -10 -5 0 -11 4 -13 10 -2 6 4 11 13 11 9 0 15 -5 13 -11z m-1404 -51
c6 -5 1 -8 -13 -8 -17 0 -22 4 -17 16 3 9 7 23 7 32 1 9 4 6 6 -8 3 -14 10
-28 17 -32z m-176 24 c2 -7 -2 -10 -12 -6 -9 3 -16 11 -16 16 0 13 23 5 28
-10z m553 -4 c22 -12 39 -25 39 -30 0 -15 -20 -8 -37 12 -10 11 -25 20 -35 20
-10 0 -18 5 -18 10 0 14 8 13 51 -12z m757 2 c10 -16 10 -20 0 -20 -17 0 -32
12 -35 28 -4 19 21 14 35 -8z m-668 -40 c0 -5 -4 -10 -10 -10 -5 0 -10 5 -10
10 0 6 5 10 10 10 6 0 10 -4 10 -10z m-480 -30 c0 -5 -4 -10 -9 -10 -6 0 -13
5 -16 10 -3 6 1 10 9 10 9 0 16 -4 16 -10z m4 -79 c-5 -12 -9 -9 -15 13 -4 16
-5 34 -2 39 9 15 25 -34 17 -52z m-54 -15 c-11 -11 -39 19 -40 43 0 10 8 7 25
-9 17 -16 22 -27 15 -34z m1488 9 c-3 -3 -9 2 -12 12 -6 14 -5 15 5 6 7 -7 10
-15 7 -18z m-522 -26 c10 -17 -27 -9 -49 11 l-21 20 32 -11 c18 -6 35 -15 38
-20z m-56 -29 c0 -5 -7 -7 -15 -4 -8 4 -15 8 -15 10 0 2 7 4 15 4 8 0 15 -4
15 -10z m100 0 c0 -5 -4 -10 -10 -10 -5 0 -10 5 -10 10 0 6 5 10 10 10 6 0 10
-4 10 -10z m-400 -20 c0 -5 -10 -10 -22 -9 -22 0 -22 1 -3 9 11 5 21 9 23 9 1
1 2 -3 2 -9z m255 -170 c3 -5 2 -10 -4 -10 -5 0 -13 5 -16 10 -3 6 -2 10 4 10
5 0 13 -4 16 -10z m-1001 -158 c-6 -4 -16 -16 -22 -27 -11 -20 -11 -20 -12 1
0 25 8 34 29 34 10 0 12 -3 5 -8z m229 -29 c-7 -2 -21 -2 -30 0 -10 3 -4 5 12
5 17 0 24 -2 18 -5z m1277 3 c0 -3 -4 -8 -10 -11 -5 -3 -10 -1 -10 4 0 6 5 11
10 11 6 0 10 -2 10 -4z m73 -66 c-18 -17 -39 -30 -48 -30 -12 0 -13 -4 -6 -18
7 -14 5 -21 -10 -30 -10 -7 -19 -19 -19 -26 0 -16 -13 -21 -72 -32 -25 -4 -38
-2 -38 5 0 6 17 11 40 11 22 0 40 2 40 4 0 2 3 11 6 19 4 12 0 14 -15 10 -26
-7 -26 -4 0 50 25 50 47 64 109 66 l45 1 -32 -30z m-113 15 c0 -9 -34 -59 -44
-67 -6 -4 -13 -5 -18 -2 -4 3 -16 -1 -27 -8 -16 -10 -27 -10 -54 0 -41 15 -70
16 -62 2 3 -5 2 -10 -3 -10 -5 0 -14 -11 -22 -24 -8 -16 -18 -22 -28 -19 -12
5 -14 1 -10 -15 6 -22 8 -22 -76 -22 -28 0 -53 -5 -57 -12 -6 -9 -11 -9 -23 1
-11 9 -32 10 -87 2 -40 -5 -76 -8 -81 -5 -13 8 3 26 18 20 8 -3 14 -2 14 3 0
4 30 6 68 4 90 -4 102 5 68 50 -36 47 -56 54 -56 20 0 -20 -3 -24 -11 -16 -16
16 6 51 37 59 13 3 54 4 89 2 43 -3 62 -1 55 6 -18 18 -11 22 29 18 32 -3 38
-7 34 -20 -5 -16 -4 -15 8 0 15 18 73 26 101 13 10 -4 26 0 40 9 21 15 98 23
98 11z m-520 -110 c0 -9 -9 -15 -22 -15 -21 0 -21 0 -2 15 24 18 24 18 24 0z
m-1024 -84 c-9 -13 -53 -19 -68 -9 -10 7 -9 8 4 4 10 -3 20 -1 23 4 4 6 15 10
26 10 11 0 18 -4 15 -9z m1192 -2 c-2 -6 -8 -10 -13 -10 -5 0 -11 4 -13 10 -2
6 4 11 13 11 9 0 15 -5 13 -11z m-48 -9 c0 -5 -2 -10 -4 -10 -3 0 -8 5 -11 10
-3 6 -1 10 4 10 6 0 11 -4 11 -10z m328 -30 c-7 -11 -16 -20 -19 -20 -3 0 -17
-10 -31 -22 -35 -32 -64 -48 -87 -48 -11 0 -23 -5 -26 -10 -4 -6 -11 -8 -16
-5 -15 10 23 41 101 83 87 47 95 49 78 22z m-285 -4 c15 -12 11 -14 -32 -19
-51 -6 -91 0 -91 14 0 4 19 10 43 12 23 2 47 4 52 5 6 1 18 -5 28 -12z m-900
-37 c13 -1 8 -4 -13 -8 -39 -8 -53 -4 -44 10 3 6 13 8 21 5 8 -3 24 -7 36 -7z
m-103 -9 c0 -5 -10 -10 -22 -10 -19 0 -20 2 -8 10 19 13 30 13 30 0z m-188
-22 c-8 -8 -17 -8 -34 0 -22 10 -21 11 12 11 26 1 31 -2 22 -11z m1111 5 c-7
-2 -19 -2 -25 0 -7 3 -2 5 12 5 14 0 19 -2 13 -5z m-277 -47 c-8 -31 -17 -33
-34 -5 -11 18 -11 23 5 34 23 18 37 4 29 -29z m240 9 c-9 -7 -16 -19 -16 -27
0 -13 -51 -38 -78 -38 -7 0 -12 9 -12 21 0 15 5 19 15 15 9 -3 18 1 21 9 4 8
17 15 30 15 14 0 24 6 24 15 0 9 6 12 16 8 16 -6 16 -7 0 -18z m-286 -30 c0
-14 -4 -25 -9 -25 -12 0 -19 21 -13 38 8 21 22 13 22 -13z m7 -49 c-8 -16 -14
-21 -19 -13 -12 18 -10 25 10 30 9 3 18 5 19 6 0 0 -4 -10 -10 -23z m250 8
c-3 -3 -12 -4 -19 -1 -8 3 -5 6 6 6 11 1 17 -2 13 -5z m-346 -447 c-1 -12 -15
-9 -19 4 -3 6 1 10 8 8 6 -3 11 -8 11 -12z m-111 -39 c0 -5 -9 -8 -20 -8 -23
0 -26 10 -8 28 9 9 14 9 20 -1 4 -6 8 -15 8 -19z m365 -18 c0 -8 -10 -16 -22
-18 -18 -3 -23 2 -23 18 0 16 5 21 23 18 12 -2 22 -10 22 -18z m-565 -38 c0
-13 -30 -52 -41 -52 -13 0 -11 34 3 48 13 13 38 16 38 4z m229 -18 c-13 -16
-35 -18 -44 -4 -7 11 35 31 48 23 4 -3 3 -11 -4 -19z m356 -4 c3 -5 1 -10 -4
-10 -6 0 -11 5 -11 10 0 6 2 10 4 10 3 0 8 -4 11 -10z m15 -170 c0 -13 -7 -20
-20 -20 -23 0 -26 10 -8 28 18 18 28 15 28 -8z m-530 -15 c6 -8 9 -18 6 -23
-7 -12 -85 -12 -92 -1 -3 5 2 9 11 9 9 0 23 7 31 15 19 19 28 19 44 0z m50
-45 c-8 -5 -19 -10 -25 -10 -5 0 -3 5 5 10 8 5 20 10 25 10 6 0 3 -5 -5 -10z
m30 -116 c0 -8 -4 -12 -10 -9 -5 3 -10 10 -10 16 0 5 5 9 10 9 6 0 10 -7 10
-16z m-304 -5 c3 -6 2 -15 -4 -21 -6 -6 -11 -2 -15 11 -5 22 7 29 19 10z m-31
-29 c3 -5 2 -10 -4 -10 -5 0 -13 5 -16 10 -3 6 -2 10 4 10 5 0 13 -4 16 -10z
m-215 -135 c0 -8 -4 -15 -10 -15 -5 0 -10 7 -10 15 0 8 5 15 10 15 6 0 10 -7
10 -15z m-90 -51 c0 -8 -4 -12 -10 -9 -5 3 -10 10 -10 16 0 5 5 9 10 9 6 0 10
-7 10 -16z m-81 -7 c6 -8 8 -17 5 -20 -9 -8 -44 11 -44 23 0 15 26 12 39 -3z
m-105 -33 c3 -9 4 -20 1 -24 -9 -15 -35 1 -35 21 0 23 25 25 34 3z m60 -9 c19
-19 90 -45 123 -45 13 0 34 5 45 11 16 8 19 8 16 -2 -2 -6 -24 -17 -49 -23
-24 -7 -52 -17 -62 -22 -15 -9 -26 -3 -63 34 -24 25 -44 49 -44 54 0 13 17 9
34 -7z m461 -96 c-4 -5 -2 -17 4 -26 9 -16 11 -16 20 7 7 18 10 20 10 8 1 -10
7 -18 15 -18 12 0 12 -4 0 -29 -15 -30 -46 -47 -64 -36 -11 7 -14 98 -4 108
10 9 25 -3 19 -14z m50 -1110 c4 -6 7 -27 7 -47 0 -22 6 -41 16 -48 22 -16 2
-40 -40 -49 -34 -8 -51 7 -44 37 2 10 0 21 -5 24 -17 10 -9 53 13 74 24 22 43
26 53 9z m-75 -195 c0 -7 -11 -21 -25 -31 -14 -10 -42 -33 -63 -50 -20 -18
-45 -33 -54 -33 -9 0 -20 -4 -23 -10 -3 -5 -1 -10 4 -10 16 0 13 -36 -4 -50
-8 -7 -22 -9 -31 -6 -12 5 -15 2 -10 -10 7 -17 -9 -44 -26 -44 -6 0 -8 7 -4
15 3 9 0 15 -9 15 -22 0 -19 8 23 55 31 36 38 50 34 75 -4 28 10 41 23 21 3
-5 16 0 30 12 59 54 78 66 106 65 17 -1 29 -7 29 -14z m-216 -101 c3 -7 1 -13
-4 -13 -6 0 -10 -7 -10 -15 0 -8 -7 -15 -15 -15 -8 0 -15 -6 -16 -12 0 -7 -5
2 -11 21 -7 25 -6 36 3 42 19 11 48 7 53 -8z m-64 -192 c0 -10 -7 -24 -15 -31
-12 -10 -16 -9 -21 4 -3 9 -4 23 0 31 8 21 36 19 36 -4z m-160 -43 c0 -7 -4
-19 -9 -27 -8 -12 -12 -12 -24 -2 -11 8 -16 9 -19 1 -2 -6 -11 -8 -21 -4 -24
9 -17 27 14 35 39 11 59 10 59 -3z m90 -35 c0 -28 -16 -47 -34 -40 -9 4 -16
14 -16 22 0 9 5 13 10 10 6 -3 10 1 10 9 0 9 7 16 15 16 8 0 15 -8 15 -17z
m-70 -91 c0 -9 -14 -26 -30 -37 -16 -11 -30 -23 -30 -27 0 -5 -5 -8 -11 -8 -6
0 -1 12 10 26 12 15 21 32 21 38 0 16 21 36 32 30 4 -3 8 -13 8 -22z m-100
-117 c-13 -14 -26 -23 -28 -20 -7 7 29 45 41 45 6 0 0 -11 -13 -25z m1857 9
c2 -6 -3 -14 -11 -17 -8 -3 -16 2 -19 14 -4 15 -1 19 10 17 9 -2 18 -8 20 -14z"/>
<path d="M1000 4637 c0 -7 9 -19 20 -27 11 -8 20 -20 20 -27 0 -7 5 -13 10
-13 13 0 13 17 -1 25 -6 4 -8 14 -5 22 3 8 1 11 -4 8 -6 -3 -10 1 -10 9 0 9
-7 16 -15 16 -8 0 -15 -6 -15 -13z"/>
<path d="M955 4619 c-4 -6 -5 -12 -2 -15 2 -3 7 2 10 11 7 17 1 20 -8 4z"/>
<path d="M1765 4100 c3 -5 10 -10 16 -10 5 0 9 5 9 10 0 6 -7 10 -16 10 -8 0
-12 -4 -9 -10z"/>
<path d="M1635 4080 c-3 -5 1 -10 10 -10 9 0 13 5 10 10 -3 6 -8 10 -10 10 -2
0 -7 -4 -10 -10z"/>
<path d="M1586 4019 c-18 -17 -18 -19 -2 -19 9 0 19 7 23 15 8 23 0 25 -21 4z"/>
<path d="M1410 7490 c0 -5 6 -10 14 -10 8 0 18 5 21 10 3 6 -3 10 -14 10 -12
0 -21 -4 -21 -10z"/>
<path d="M1658 7461 c-21 -53 -13 -131 13 -131 10 0 22 -8 28 -17 9 -16 11
-16 28 -2 10 9 33 29 52 45 18 16 44 45 57 64 13 19 31 45 40 58 l16 22 -109
0 -110 0 -15 -39z"/>
<path d="M5053 7480 c6 -8 12 -16 13 -18 1 -1 4 6 7 17 3 14 0 19 -14 18 -14
-1 -16 -4 -6 -17z"/>
<path d="M5968 7457 c3 -37 0 -46 -21 -59 -22 -15 -25 -15 -38 3 -23 32 -39
23 -39 -21 0 -24 5 -40 12 -40 9 0 9 -3 0 -12 -14 -14 -16 -48 -2 -48 5 0 15
10 21 22 7 13 37 47 68 75 31 29 69 65 85 80 l29 27 -5 -36 c-3 -27 0 -34 10
-31 7 3 11 12 8 20 -3 8 -6 26 -6 39 0 23 -3 24 -63 24 l-62 0 3 -43z m-48
-107 c0 -5 -4 -10 -10 -10 -5 0 -10 5 -10 10 0 6 5 10 10 10 6 0 10 -4 10 -10z"/>
<path d="M6240 7460 l0 -40 63 0 c51 0 64 -3 75 -20 16 -26 -4 -60 -35 -60
-20 0 -23 -5 -23 -40 0 -42 23 -57 33 -21 2 10 16 20 31 23 23 5 25 3 20 -18
-4 -15 -2 -24 5 -24 6 0 11 5 11 11 0 5 5 7 10 4 19 -12 -2 -27 -29 -20 -21 5
-24 4 -13 -6 16 -18 15 -39 -3 -39 -8 0 -26 -11 -40 -25 -14 -14 -25 -21 -25
-15 0 5 -7 10 -15 10 -11 0 -14 -14 -13 -66 1 -73 16 -98 52 -88 29 7 50 -18
42 -50 -3 -14 -14 -27 -24 -29 -10 -3 -6 -5 11 -6 21 -1 27 3 27 21 0 20 1 21
20 3 19 -17 20 -17 39 6 29 35 27 50 -6 44 -27 -5 -27 -5 -5 5 29 12 42 6 42
-21 0 -27 22 -24 49 7 12 14 25 23 28 20 4 -3 -1 -14 -10 -24 -10 -10 -17 -28
-17 -39 0 -25 -38 -33 -147 -30 -39 1 -66 -1 -60 -5 11 -7 10 -9 -12 -12 -4 0
-21 -16 -36 -34 -21 -25 -25 -36 -16 -45 8 -8 15 -6 27 11 8 12 20 22 25 22 6
0 3 -7 -5 -16 -20 -20 -21 -54 -1 -54 8 0 19 -9 25 -20 7 -13 20 -20 38 -19
15 0 45 -2 67 -6 34 -5 38 -4 25 7 -16 14 -23 138 -7 138 4 0 26 9 48 20 40
19 41 19 61 0 20 -18 22 -18 43 -2 13 9 21 19 20 22 -2 3 0 12 5 20 7 12 11 9
18 -10 l9 -24 19 22 c10 12 23 22 29 22 6 0 20 8 31 19 11 10 31 24 45 31 26
13 20 7 -80 -78 -25 -20 -56 -49 -70 -63 -38 -39 -131 -169 -149 -209 -9 -19
-17 -36 -18 -38 -1 -2 -20 6 -42 17 -22 11 -42 17 -46 14 -10 -10 -7 -53 4
-53 6 0 10 7 10 15 0 9 6 12 17 8 11 -4 12 -8 5 -11 -7 -2 -12 -10 -12 -18 0
-17 -5 -17 -31 -4 -15 8 -19 7 -19 -4 0 -10 46 -36 65 -36 1 0 5 14 9 30 3 17
9 30 14 30 5 0 0 -33 -10 -72 -36 -142 -40 -164 -43 -278 -3 -94 0 -134 21
-229 13 -63 28 -118 32 -121 4 -3 29 -48 54 -100 30 -62 63 -111 92 -140 25
-24 46 -49 46 -56 0 -6 7 -17 16 -24 13 -12 8 -21 -45 -74 -34 -34 -61 -67
-61 -73 0 -17 28 -24 71 -17 38 6 55 24 22 24 -14 0 -14 3 5 20 12 11 33 20
47 20 16 0 25 6 25 15 0 8 7 15 16 15 12 0 15 6 10 25 -5 20 -2 27 19 37 20 9
28 8 43 -5 25 -23 34 -21 30 6 -2 18 2 23 25 25 15 2 27 8 27 13 0 5 9 9 20 9
16 0 20 7 20 31 0 27 2 30 15 19 12 -10 15 -10 15 4 0 9 6 16 14 16 8 0 18 9
21 20 3 11 11 20 16 20 5 0 7 10 4 23 -4 15 1 32 14 48 l19 24 26 -24 c31 -29
32 -38 9 -63 -15 -17 -15 -20 -3 -28 13 -8 12 -12 -5 -24 -20 -15 -19 -15 5
-16 19 0 21 -3 12 -12 -9 -9 -15 -9 -24 0 -16 16 -48 15 -48 -1 0 -8 -17 -31
-37 -52 -33 -33 -35 -37 -15 -32 19 4 23 2 20 -15 -3 -20 -38 -36 -38 -17 0 5
-9 9 -20 9 -13 0 -22 -9 -26 -25 -7 -28 -57 -75 -80 -75 -9 0 -21 -6 -28 -13
-20 -20 -45 -80 -43 -102 1 -14 -4 -20 -15 -19 -10 1 -18 -3 -18 -9 0 -5 -18
-27 -40 -47 -31 -28 -40 -44 -40 -69 0 -58 -49 -128 -120 -172 -33 -20 -106
-41 -156 -44 -22 -1 -50 -8 -62 -14 -11 -6 -30 -11 -42 -11 -14 0 -24 -8 -27
-20 -3 -11 -16 -23 -29 -26 -30 -8 -123 23 -149 50 -14 14 -14 16 -2 6 11 -8
21 -10 28 -3 6 6 -6 18 -33 33 -49 27 -128 107 -128 130 -1 22 -23 47 -38 42
-18 -6 -42 29 -36 50 3 10 2 37 -1 61 -7 42 -7 43 -41 39 -29 -4 -34 -8 -34
-29 0 -22 -2 -24 -15 -13 -13 10 -18 11 -28 1 -9 -10 -9 -15 3 -24 25 -20 9
-107 -19 -107 -27 0 -108 -36 -113 -50 -2 -7 -35 -14 -79 -16 l-76 -5 -8 83
c-4 45 -13 95 -22 111 -10 20 -14 51 -12 96 3 56 0 72 -18 94 l-21 28 -7 -31
c-4 -17 -4 -34 -1 -37 3 -4 6 1 6 10 0 9 7 17 15 17 20 0 19 -10 -6 -36 -11
-12 -23 -41 -26 -64 -5 -38 -8 -41 -29 -36 -17 5 -24 2 -24 -8 0 -8 6 -16 13
-19 8 -3 6 -10 -9 -23 -11 -11 -19 -24 -17 -31 6 -17 -16 -26 -32 -13 -21 17
-19 30 4 30 26 0 48 27 33 42 -9 9 -12 9 -12 0 0 -7 -11 -17 -25 -22 -14 -5
-25 -16 -25 -24 0 -8 -9 -17 -19 -21 -11 -3 -22 -12 -25 -20 -3 -8 -12 -12
-21 -9 -26 11 -17 -25 16 -58 27 -28 34 -30 76 -24 26 3 54 13 63 21 24 22 40
18 40 -9 0 -19 4 -23 19 -19 10 3 22 0 25 -6 4 -7 -1 -11 -13 -11 -12 0 -21
-7 -21 -15 0 -8 5 -15 10 -15 6 0 10 -11 10 -24 0 -20 -10 -29 -56 -50 -31
-14 -64 -26 -74 -26 -10 0 -46 -9 -81 -21 -47 -15 -87 -20 -149 -19 -137 3
-144 2 -188 -31 -35 -25 -40 -34 -31 -45 7 -8 10 -16 8 -17 -2 -1 -12 -9 -21
-16 -15 -11 -21 -11 -34 -1 -13 11 -23 5 -71 -44 -42 -43 -58 -54 -65 -44 -5
8 -6 3 -2 -14 5 -21 -1 -36 -23 -65 -32 -41 -143 -229 -143 -243 0 -4 63 14
141 40 191 66 324 94 408 87 86 -8 170 -39 256 -97 l70 -46 -3 -55 c-1 -29 -7
-63 -11 -74 -23 -54 -34 -106 -24 -116 7 -7 14 -5 23 6 13 15 15 14 31 -7 17
-22 18 -22 13 -2 -5 19 0 21 67 28 65 6 103 0 71 -11 -7 -3 -19 -11 -27 -20
-8 -8 -19 -12 -24 -8 -5 3 -12 1 -16 -5 -3 -5 -19 -10 -36 -10 -16 0 -29 -4
-29 -10 0 -5 -9 -10 -20 -10 -28 0 -82 -29 -75 -39 7 -13 -22 -34 -36 -25 -8
5 -7 9 5 16 13 7 14 13 6 29 -13 23 -30 16 -30 -11 0 -13 -5 -17 -20 -13 -12
3 -20 14 -20 27 1 21 1 21 15 2 15 -20 15 -20 15 0 0 11 -5 25 -12 32 -9 9 -9
17 0 34 17 36 23 64 17 81 -9 21 -56 32 -67 15 -6 -11 -10 -11 -17 0 -12 20
-281 21 -333 2 -21 -8 -38 -18 -38 -22 0 -4 -5 -8 -12 -8 -6 0 -20 -7 -29 -16
-14 -13 -16 -21 -8 -36 9 -17 17 -18 52 -13 23 4 49 11 58 16 8 4 51 15 95 23
43 8 108 22 143 31 35 9 66 14 68 11 3 -3 -7 -20 -21 -39 -18 -23 -24 -40 -19
-53 13 -35 68 -94 88 -94 11 0 29 -7 39 -15 11 -8 31 -15 44 -15 19 0 23 -4
19 -20 -3 -11 -1 -20 5 -20 5 0 7 -4 4 -9 -8 -12 9 -152 28 -236 20 -83 49
-173 78 -235 11 -25 33 -72 48 -105 15 -33 54 -96 87 -140 180 -241 453 -427
728 -494 66 -17 145 -33 176 -36 47 -5 58 -10 68 -31 6 -14 11 -32 11 -40 0
-10 6 -13 19 -9 10 3 24 -1 31 -10 17 -21 50 -19 50 3 0 19 18 42 32 42 4 0 8
-9 8 -20 0 -11 -4 -20 -10 -20 -5 0 -10 -6 -10 -13 0 -8 -9 -40 -20 -73 -49
-142 -75 -407 -51 -519 20 -92 54 -192 86 -254 19 -37 35 -72 35 -79 0 -6 23
-34 50 -63 28 -29 48 -54 45 -57 -9 -10 16 -41 29 -36 8 3 17 1 21 -5 3 -6 15
-11 26 -11 12 0 19 -7 19 -20 0 -11 -4 -20 -10 -20 -5 0 -10 -4 -10 -10 0 -14
97 -108 120 -115 11 -3 20 -10 20 -14 0 -5 13 -14 29 -20 41 -17 69 -89 41
-106 -5 -3 -10 -14 -10 -23 1 -13 7 -9 25 12 13 17 22 33 19 37 -2 4 7 2 21
-4 14 -7 25 -19 25 -28 0 -38 -13 -79 -26 -79 -20 0 -17 -16 7 -39 12 -11 19
-26 16 -34 -3 -8 5 -25 19 -38 13 -12 24 -27 24 -33 0 -6 9 -17 20 -24 11 -7
20 -19 20 -28 0 -12 7 -15 25 -11 14 2 23 2 20 -1 -3 -3 1 -12 9 -21 21 -25
25 -58 9 -80 -14 -21 -9 -46 8 -36 5 4 9 -7 9 -23 0 -21 5 -29 16 -28 9 0 19
-6 23 -14 4 -8 15 -30 24 -48 9 -19 17 -40 17 -49 0 -8 9 -27 19 -42 11 -15
23 -40 27 -55 6 -26 5 -28 -17 -21 -13 4 -29 11 -35 16 -7 6 -18 1 -29 -11
-19 -21 -50 -27 -59 -11 -3 4 6 6 21 3 18 -3 24 -1 19 6 -4 7 3 26 16 43 l23
31 -31 26 c-22 20 -33 39 -38 70 -3 24 -13 54 -22 67 -9 13 -13 29 -9 35 4 6
-7 15 -24 21 -35 12 -39 27 -26 82 5 17 3 27 -4 27 -6 0 -11 -7 -11 -15 0 -16
-9 -19 -33 -9 -9 3 -13 13 -10 25 6 21 -12 27 -20 7 -4 -10 -7 -10 -18 0 -7 6
-23 12 -35 12 -27 0 -50 52 -34 79 8 14 9 14 10 0 0 -8 11 -26 25 -39 l25 -23
0 31 c0 19 -5 32 -13 32 -7 0 -18 9 -25 21 -11 17 -19 20 -50 14 -30 -6 -34
-4 -24 8 16 19 5 27 -27 21 -22 -5 -29 -1 -39 21 -10 21 -10 30 0 42 9 12 9
16 -3 23 -9 6 0 8 26 5 22 -3 34 -3 28 1 -7 3 -13 11 -13 18 0 25 -83 86 -116
86 -30 0 -32 2 -43 60 -7 33 -17 60 -23 60 -6 0 -8 -11 -4 -27 19 -86 19 -93
0 -93 -11 0 -35 4 -54 10 -41 12 -50 2 -50 -52 0 -67 -30 -37 -32 32 -1 21 -6
30 -17 30 -30 0 -43 -17 -52 -66 -17 -89 32 -149 116 -142 25 2 45 0 45 -4 0
-5 9 -8 21 -8 34 0 59 -19 59 -46 l0 -25 -156 7 c-129 6 -157 5 -165 -7 -7
-11 -9 -9 -9 9 0 12 5 22 10 22 6 0 10 13 10 29 0 49 -23 131 -36 131 -7 0
-24 14 -37 30 -14 17 -34 30 -45 30 -10 0 -27 9 -37 20 -12 13 -21 16 -25 10
-4 -6 -15 -12 -26 -14 -41 -9 -75 -27 -81 -43 -3 -10 -13 -26 -22 -37 -9 -10
-16 -21 -16 -25 0 -3 -3 -5 -7 -4 -5 2 -8 -3 -8 -11 0 -8 -6 -16 -12 -18 -9
-3 -8 -9 4 -21 9 -9 20 -17 25 -17 4 0 6 -21 4 -46 l-3 -47 31 6 c35 7 38 3
16 -20 -19 -19 -52 -11 -85 20 -38 36 -80 61 -80 48 0 -6 4 -11 10 -11 5 0 7
-6 5 -12 -3 -7 13 -24 35 -37 41 -26 44 -41 7 -41 -30 -1 -239 -61 -292 -85
-16 -7 -42 -17 -58 -20 -15 -4 -30 -11 -33 -16 -8 -14 -36 -11 -48 5 -6 8 -24
17 -41 21 -20 3 -24 3 -12 -3 17 -7 16 -9 -8 -20 -35 -16 -62 -15 -69 3 -6 17
-32 20 -38 5 -2 -8 -62 -11 -175 -10 -12 0 -24 8 -27 18 -6 16 -35 36 -101 70
-16 9 -36 24 -43 34 -7 10 -20 18 -28 18 -10 0 -13 6 -9 19 6 19 -21 39 -34
25 -3 -4 0 -9 7 -11 6 -3 12 -12 12 -20 0 -15 -2 -15 -17 0 -10 8 -30 19 -45
22 -26 7 -28 5 -28 -23 0 -19 -6 -33 -17 -38 -10 -4 -76 -8 -148 -9 -77 0
-138 -5 -150 -12 -19 -11 -19 -12 5 -17 70 -14 80 -14 80 5 0 15 8 19 40 19
22 0 40 -4 40 -9 0 -5 17 -11 38 -14 22 -4 42 -15 50 -27 17 -29 29 -25 37 12
9 39 30 64 39 45 3 -6 3 -1 0 11 -5 22 -4 23 15 12 25 -13 22 -39 -12 -110
-16 -32 -30 -46 -51 -52 -16 -4 -32 -11 -35 -15 -6 -8 -27 -21 -85 -52 -37
-20 -66 -48 -59 -55 4 -3 37 -6 75 -6 39 0 68 -4 68 -10 0 -5 -7 -10 -15 -10
-9 0 -12 -6 -9 -15 4 -10 0 -15 -11 -15 -11 0 -15 5 -12 14 3 8 -2 17 -11 21
-9 3 -18 2 -19 -2 -2 -5 -20 -7 -41 -5 -33 3 -40 -1 -59 -31 -27 -39 -29 -60
-7 -81 11 -12 26 -14 53 -10 21 3 41 2 44 -3 3 -5 -7 -7 -24 -5 -36 5 -37 -3
-2 -21 44 -22 98 -27 147 -12 51 16 83 11 66 -10 -5 -6 -7 -15 -3 -18 3 -4 -5
-8 -18 -8 -17 -1 -19 -3 -6 -6 9 -2 17 -8 17 -13 0 -4 10 -10 21 -13 21 -6 21
-7 -7 -40 -148 -178 -255 -291 -263 -280 -10 13 -51 30 -131 54 -83 24 -102
28 -177 34 -29 2 -58 7 -64 11 -16 9 -352 5 -389 -6 -46 -13 -59 -4 -53 36 4
22 2 34 -6 34 -14 0 -61 -34 -108 -78 -24 -23 -44 -32 -67 -32 -52 0 -91 -18
-138 -63 -24 -23 -54 -50 -66 -59 -12 -10 -22 -22 -22 -28 0 -7 440 -10 1326
-10 881 0 1323 3 1319 10 -3 6 -1 10 4 10 6 0 11 -4 11 -10 0 -7 208 -10 603
-10 l603 0 -4 40 c-4 39 -3 40 27 40 27 0 31 3 31 27 0 31 -40 133 -52 133 -4
0 -6 12 -4 28 2 15 1 20 -1 12 -3 -8 -10 -21 -16 -28 -8 -11 -7 -16 6 -23 23
-13 22 -39 -1 -39 -22 0 -120 -49 -158 -79 -31 -25 -56 -28 -48 -6 9 24 -23
29 -64 11 -21 -9 -53 -16 -72 -16 -19 1 -45 -1 -57 -5 -18 -6 -25 -2 -33 19
-5 14 -16 26 -23 26 -21 0 -37 45 -37 105 0 43 3 55 15 55 24 0 64 52 65 83 0
39 -26 75 -61 82 -26 6 -51 25 -32 25 7 0 77 -21 198 -60 17 -5 42 -11 57 -14
14 -2 35 -9 45 -15 11 -5 44 -13 74 -17 30 -3 59 -12 65 -20 6 -7 31 -15 55
-18 24 -2 52 -7 62 -11 16 -7 17 137 17 2927 0 2099 -3 2937 -11 2945 -8 8 -8
13 0 17 8 5 11 196 11 642 l0 634 -270 0 c-173 0 -270 -4 -270 -10 0 -5 -9
-10 -20 -10 -11 0 -20 5 -20 10 0 6 -23 10 -51 10 -44 0 -50 -2 -39 -15 7 -8
10 -25 6 -40 -5 -18 -2 -25 8 -25 10 0 18 -14 22 -37 4 -21 10 -43 15 -48 4
-6 4 -17 0 -24 -6 -9 -16 4 -34 43 -14 31 -30 56 -34 56 -4 0 -17 -13 -28 -30
-21 -31 -35 -24 -35 18 0 12 -4 22 -10 22 -5 0 -10 6 -10 14 0 16 -30 26 -82
26 -20 0 -40 5 -43 10 -3 6 -17 10 -31 10 -13 0 -24 4 -24 9 0 5 -70 9 -155
10 l-155 1 0 -40z m660 10 c0 -12 -29 -20 -35 -10 -9 15 4 30 20 23 8 -3 15
-9 15 -13z m-460 -46 c0 -9 -7 -14 -17 -12 -25 5 -28 28 -4 28 12 0 21 -6 21
-16z m44 -100 c-5 -42 -4 -58 7 -66 12 -8 12 -9 -1 -5 -19 5 -24 28 -15 83 9
64 16 54 9 -12z m451 -54 c3 -5 1 -10 -4 -10 -6 0 -11 5 -11 10 0 6 2 10 4 10
3 0 8 -4 11 -10z m-28 -16 c-3 -3 -12 -4 -19 -1 -8 3 -5 6 6 6 11 1 17 -2 13
-5z m-57 -18 c0 -3 -4 -8 -10 -11 -5 -3 -10 -1 -10 4 0 6 5 11 10 11 6 0 10
-2 10 -4z m-133 -12 c-3 -3 -12 -4 -19 -1 -8 3 -5 6 6 6 11 1 17 -2 13 -5z
m243 -3 c0 -12 -28 -22 -34 -12 -3 5 -3 11 1 15 9 9 33 7 33 -3z m-235 -41 c3
-6 -1 -7 -9 -4 -18 7 -21 14 -7 14 6 0 13 -4 16 -10z m222 4 c-3 -3 -12 -4
-19 -1 -8 3 -5 6 6 6 11 1 17 -2 13 -5z m-337 -8 c0 -11 -19 -15 -25 -6 -3 5
1 10 9 10 9 0 16 -2 16 -4z m550 -16 c-8 -5 -22 -10 -30 -10 -13 0 -13 1 0 10
8 5 22 10 30 10 13 0 13 -1 0 -10z m-55 -10 c-3 -5 -17 -10 -31 -10 -13 0 -32
-4 -42 -9 -28 -15 -120 -51 -129 -51 -4 0 0 5 10 11 9 5 17 16 17 23 0 8 7 19
15 26 12 10 15 9 15 -5 0 -16 2 -16 24 -2 20 14 47 20 109 25 10 1 15 -2 12
-8z m-342 -7 c-7 -2 -21 -2 -30 0 -10 3 -4 5 12 5 17 0 24 -2 18 -5z m-123
-13 c0 -7 6 -7 19 0 32 17 35 11 7 -11 -19 -15 -25 -27 -21 -40 4 -11 2 -19
-4 -19 -6 0 -10 13 -9 28 1 15 -1 33 -6 40 -4 7 -2 12 3 12 6 0 11 -5 11 -10z
m110 -40 c0 -5 -2 -10 -4 -10 -3 0 -8 5 -11 10 -3 6 -1 10 4 10 6 0 11 -4 11
-10z m50 -25 c0 -8 -4 -15 -10 -15 -5 0 -7 7 -4 15 4 8 8 15 10 15 2 0 4 -7 4
-15z m-176 -37 c8 -33 7 -40 -5 -32 -8 4 -9 -3 -4 -25 4 -20 3 -31 -4 -31 -6
0 -11 6 -11 14 0 8 -4 16 -10 18 -11 3 9 78 21 78 3 0 9 -10 13 -22z m223 16
c-3 -3 -12 -4 -19 -1 -8 3 -5 6 6 6 11 1 17 -2 13 -5z m-417 -184 c0 -5 -2
-10 -4 -10 -3 0 -8 5 -11 10 -3 6 -1 10 4 10 6 0 11 -4 11 -10z m-40 -70 c0
-5 -7 -10 -16 -10 -8 0 -12 5 -9 10 3 6 10 10 16 10 5 0 9 -4 9 -10z m916
-579 c17 14 29 6 21 -16 -7 -17 -42 -20 -52 -5 -4 6 -3 19 1 28 7 16 7 16 11
-1 4 -14 8 -16 19 -6z m74 -41 c0 -5 -5 -12 -11 -16 -14 -8 -33 11 -25 25 7
11 36 4 36 -9z m79 -46 c-6 -7 -15 -11 -21 -8 -5 3 -4 12 3 20 6 7 15 11 21 8
5 -3 4 -12 -3 -20z m-33 -5 c10 -16 -18 -40 -35 -29 -12 7 -12 11 -2 24 16 19
27 20 37 5z m-96 -43 c0 4 9 -2 20 -14 24 -26 25 -35 4 -52 -12 -11 -18 -10
-31 3 -13 13 -14 19 -3 31 8 11 9 16 1 16 -6 0 -11 -4 -11 -10 0 -5 -7 -10
-15 -10 -18 0 -20 21 -3 38 8 8 15 9 25 1 7 -7 13 -8 13 -3z m-27 -83 c-5 -12
-3 -14 8 -8 12 7 12 6 -1 -11 -39 -52 -42 -54 -58 -41 -13 10 -14 8 -9 -14 5
-19 1 -31 -11 -43 -10 -9 -22 -13 -25 -9 -4 3 -7 -1 -7 -10 0 -9 -4 -17 -10
-17 -5 0 -10 -6 -10 -14 0 -8 -13 -24 -30 -36 l-29 -21 -7 26 c-8 32 10 55 44
55 20 0 23 3 14 12 -8 8 -7 18 6 41 13 23 14 31 5 34 -7 3 -13 11 -13 19 0 10
6 11 26 4 20 -8 29 -6 42 7 16 16 16 16 0 10 -10 -3 -18 -2 -18 3 0 6 15 10
34 10 19 0 38 5 41 10 10 16 15 12 8 -7z m47 -87 c0 -3 -4 -8 -10 -11 -5 -3
-10 -1 -10 4 0 6 5 11 10 11 6 0 10 -2 10 -4z m-220 -26 c0 -13 -7 -20 -20
-20 -23 0 -25 5 -7 25 17 20 27 18 27 -5z m110 -115 c0 -8 -9 -15 -20 -15 -11
0 -20 7 -20 15 0 8 9 15 20 15 11 0 20 -7 20 -15z m-380 -100 c0 -8 -4 -15
-10 -15 -5 0 -7 7 -4 15 7 18 -7 20 -24 3 -13 -13 -15 -8 -6 16 7 19 44 3 44
-19z m-1450 -445 c0 -22 -4 -40 -10 -40 -5 0 -10 18 -10 40 0 22 5 40 10 40 6
0 10 -18 10 -40z m-135 -31 c10 -15 -1 -23 -20 -15 -9 3 -13 10 -10 16 8 13
22 13 30 -1z m640 -78 c3 -19 2 -21 -10 -11 -8 7 -15 22 -15 33 0 27 19 10 25
-22z m-469 -45 c9 -9 10 -17 4 -21 -5 -3 -10 -1 -10 4 0 6 -12 11 -26 11 -14
0 -23 4 -19 10 9 14 34 12 51 -4z m79 4 c-3 -5 -18 -9 -33 -9 l-27 1 30 8 c17
4 31 8 33 9 2 0 0 -3 -3 -9z m470 -50 c26 -28 15 -31 -14 -3 -13 13 -20 23
-14 23 5 0 18 -9 28 -20z m355 -55 c-14 -7 -43 -16 -65 -20 -40 -7 -40 -7 -13
8 31 17 54 24 83 25 17 1 16 -1 -5 -13z m-707 -82 c-7 -2 -19 -2 -25 0 -7 3
-2 5 12 5 14 0 19 -2 13 -5z m-735 -61 c3 -16 -1 -20 -12 -16 -19 7 -22 48 -3
42 6 -3 13 -14 15 -26z m-68 -16 c0 -8 -4 -17 -9 -21 -12 -7 -24 12 -16 25 9
15 25 12 25 -4z m890 -36 c0 -5 -4 -10 -10 -10 -5 0 -10 5 -10 10 0 6 5 10 10
10 6 0 10 -4 10 -10z m-190 -74 c0 -3 -4 -8 -10 -11 -5 -3 -10 -1 -10 4 0 6 5
11 10 11 6 0 10 -2 10 -4z m457 -38 c-3 -8 -6 -5 -6 6 -1 11 2 17 5 13 3 -3 4
-12 1 -19z m-627 -368 c-19 -13 -30 -13 -30 0 0 6 10 10 23 10 18 0 19 -2 7
-10z m70 -29 c0 -5 15 -18 33 -30 l32 -21 -40 -1 c-22 -1 -55 -1 -72 0 -21 2
-33 -2 -33 -10 0 -7 -3 -10 -6 -6 -12 11 8 47 26 47 10 0 20 7 24 15 6 16 36
21 36 6z m724 -39 c-5 -5 -34 -6 -64 -3 l-55 6 60 5 c65 5 74 4 59 -8z m-786
-162 c8 0 13 -3 9 -6 -10 -10 -48 7 -40 19 5 8 8 8 11 -1 2 -7 11 -12 20 -12z
m925 -247 c-7 -2 -19 -2 -25 0 -7 3 -2 5 12 5 14 0 19 -2 13 -5z m227 -423 c0
-5 -4 -10 -10 -10 -5 0 -10 5 -10 10 0 6 5 10 10 10 6 0 10 -4 10 -10z m-112
-21 c-7 -5 -19 -9 -27 -9 -11 0 -11 3 -1 14 6 8 18 12 27 9 12 -5 12 -7 1 -14z
m-43 -39 c4 -6 16 -8 28 -4 21 6 21 5 6 -11 -13 -14 -21 -15 -38 -6 -11 7 -21
16 -21 21 0 13 17 13 25 0z m-341 -90 c8 -8 4 -12 -12 -16 -12 -4 -22 -11 -22
-16 0 -10 -39 -1 -53 11 -4 4 -5 16 -1 25 6 14 14 17 42 12 19 -3 40 -10 46
-16z m-147 -52 c-3 -8 -6 -5 -6 6 -1 11 2 17 5 13 3 -3 4 -12 1 -19z m998
-118 c3 -5 -3 -10 -14 -10 -12 0 -21 5 -21 10 0 6 6 10 14 10 8 0 18 -4 21
-10z m-167 -61 c2 -5 11 -9 20 -9 15 -1 15 -2 0 -14 -23 -17 -23 -36 -1 -36 9
0 13 -3 10 -6 -3 -4 -21 1 -40 9 -19 9 -44 15 -56 12 -20 -4 -91 19 -91 30 0
2 12 11 28 20 29 16 124 12 130 -6z m182 7 c0 -3 -4 -8 -10 -11 -5 -3 -10 -1
-10 4 0 6 5 11 10 11 6 0 10 -2 10 -4z m-363 -22 c-3 -3 -12 -4 -19 -1 -8 3
-5 6 6 6 11 1 17 -2 13 -5z m133 -284 c0 -5 -3 -10 -7 -11 -99 -10 -99 -10
-73 6 29 16 80 20 80 5z m60 -1444 c0 -3 -4 -8 -10 -11 -5 -3 -10 -1 -10 4 0
6 5 11 10 11 6 0 10 -2 10 -4z m185 -56 c3 -5 1 -10 -4 -10 -6 0 -11 5 -11 10
0 6 2 10 4 10 3 0 8 -4 11 -10z m-285 -65 c20 -24 6 -28 -15 -5 -10 11 -13 20
-8 20 6 0 16 -7 23 -15z m577 -75 c2 -8 -1 -21 -6 -29 -8 -12 -12 -12 -25 2
-9 8 -13 23 -10 32 8 19 38 16 41 -5z m-330 -32 c-3 -8 -6 -5 -6 6 -1 11 2 17
5 13 3 -3 4 -12 1 -19z m83 8 c0 -2 -7 -6 -15 -10 -8 -3 -15 -1 -15 4 0 6 7
10 15 10 8 0 15 -2 15 -4z m-113 -28 c-3 -8 -6 -5 -6 6 -1 11 2 17 5 13 3 -3
4 -12 1 -19z m112 -4 c2 -2 -7 -4 -22 -4 -14 0 -29 5 -32 10 -6 10 42 4 54 -6z
m-694 -84 c3 -6 -1 -7 -9 -4 -18 7 -21 14 -7 14 6 0 13 -4 16 -10z m42 4 c-3
-3 -12 -4 -19 -1 -8 3 -5 6 6 6 11 1 17 -2 13 -5z m-1162 -54 c3 -6 -1 -7 -9
-4 -18 7 -21 14 -7 14 6 0 13 -4 16 -10z m61 -25 c17 17 60 11 83 -12 12 -12
12 -17 -1 -30 -14 -13 -19 -13 -48 2 -21 11 -35 13 -39 7 -8 -13 -58 -35 -90
-38 -17 -2 -21 0 -13 8 6 6 8 17 5 24 -11 30 51 61 75 37 11 -11 16 -10 28 2z
m1817 -15 c-3 -11 -7 -20 -9 -20 -2 0 -4 9 -4 20 0 11 4 20 9 20 5 0 7 -9 4
-20z m-1344 -13 c-29 -19 -95 -47 -111 -47 -17 0 -18 3 -8 15 7 8 20 15 30 15
10 0 33 6 51 14 19 8 36 12 38 10 2 -2 2 -5 0 -7z m-288 -55 c-7 -2 -18 1 -23
6 -8 8 -4 9 13 5 13 -4 18 -8 10 -11z m-227 -22 c25 0 36 -4 36 -15 0 -11 -11
-15 -40 -15 -22 0 -40 5 -40 10 0 6 -7 10 -15 10 -8 0 -15 7 -15 15 0 12 4 13
19 5 11 -5 36 -10 55 -10z m131 0 c-2 -4 -17 -7 -32 -7 -24 0 -25 1 -9 13 18
13 50 9 41 -6z m1276 -78 c1 -40 -1 -75 -4 -79 -4 -3 -7 31 -7 77 0 101 8 103
11 2z m-1501 43 c0 -10 -10 -15 -26 -15 -22 0 -25 2 -14 15 7 8 19 15 26 15 8
0 14 -7 14 -15z m295 -65 c-3 -5 -10 -10 -16 -10 -5 0 -9 5 -9 10 0 6 7 10 16
10 8 0 12 -4 9 -10z m-40 -30 c-3 -5 -12 -7 -20 -3 -21 7 -19 13 6 13 11 0 18
-4 14 -10z m-44 -33 c-10 -9 -11 -8 -5 6 3 10 9 15 12 12 3 -3 0 -11 -7 -18z
m1621 -9 c-7 -7 -12 -8 -12 -2 0 14 12 26 19 19 2 -3 -1 -11 -7 -17z m35 -10
c-3 -8 -6 -5 -6 6 -1 11 2 17 5 13 3 -3 4 -12 1 -19z m-1697 -12 c0 -20 -23
-26 -98 -25 -70 0 -133 16 -82 19 14 1 49 3 78 5 29 1 55 5 59 8 12 12 43 7
43 -7z m1330 -71 c0 -8 -6 -15 -14 -15 -20 0 -29 17 -14 23 22 9 28 7 28 -8z
m-280 -15 c0 -5 -12 -10 -27 -9 -25 0 -26 1 -8 9 27 12 35 12 35 0z m1164 -39
c20 -62 20 -61 -4 -61 -12 0 -24 10 -30 24 -5 13 -16 28 -24 33 -23 13 -9 53
19 53 18 0 26 -9 39 -49z m-1236 -1 c-1 -30 -6 -39 -16 -35 -7 3 -15 5 -16 5
-2 0 2 16 8 35 15 47 27 44 24 -5z m579 -2 c-3 -7 -5 -2 -5 12 0 14 2 19 5 13
2 -7 2 -19 0 -25z m568 7 c0 -14 -4 -24 -8 -22 -5 1 -8 6 -8 10 1 4 1 14 1 22
0 8 3 15 8 15 4 0 7 -11 7 -25z m-1077 -7 c-3 -7 -11 -13 -18 -13 -7 0 -15 6
-17 13 -3 7 4 12 17 12 13 0 20 -5 18 -12z m284 -62 c-9 -17 -21 21 -14 45 6
23 6 23 12 -6 4 -16 4 -34 2 -39z m45 27 c-3 -10 -5 -4 -5 12 0 17 2 24 5 18
2 -7 2 -21 0 -30z m13 -54 c0 -5 -4 -9 -10 -9 -5 0 -10 7 -10 16 0 8 5 12 10
9 6 -3 10 -10 10 -16z m-63 -31 c-3 -8 -6 -5 -6 6 -1 11 2 17 5 13 3 -3 4 -12
1 -19z m-40 -94 c-3 -3 -12 -4 -19 -1 -8 3 -5 6 6 6 11 1 17 -2 13 -5z m63
-88 c0 -8 -4 -18 -10 -21 -5 -3 -10 3 -10 14 0 12 5 21 10 21 6 0 10 -6 10
-14z m-230 -16 c0 -5 -4 -10 -10 -10 -5 0 -10 5 -10 10 0 6 5 10 10 10 6 0 10
-4 10 -10z m600 -20 c0 -5 -7 -10 -16 -10 -8 0 -12 5 -9 10 3 6 10 10 16 10 5
0 9 -4 9 -10z"/>
<path d="M6682 7488 c7 -19 38 -22 38 -4 0 10 -9 16 -21 16 -12 0 -19 -5 -17
-12z"/>
<path d="M6740 7490 c0 -5 7 -10 15 -10 8 0 15 5 15 10 0 6 -7 10 -15 10 -8 0
-15 -4 -15 -10z"/>
<path d="M2079 7453 c10 -20 9 -23 -7 -23 -24 0 -111 -62 -94 -68 7 -2 32 8
56 22 24 14 46 23 49 20 6 -7 47 18 47 28 0 5 -5 8 -12 8 -6 0 -20 8 -31 18
-19 16 -20 16 -8 -5z"/>
<path d="M5040 7441 c0 -16 50 -50 66 -44 20 8 17 22 -4 17 -9 -3 -27 4 -40
16 -12 11 -22 16 -22 11z"/>
<path d="M1452 7407 c3 -24 21 -27 26 -4 2 8 -4 17 -13 21 -13 4 -16 1 -13
-17z"/>
<path d="M5165 7400 c3 -5 8 -10 11 -10 2 0 4 5 4 10 0 6 -5 10 -11 10 -5 0
-7 -4 -4 -10z"/>
<path d="M6320 7380 c0 -13 5 -20 13 -17 6 2 12 10 12 17 0 7 -6 15 -12 18 -8
2 -13 -5 -13 -18z"/>
<path d="M2140 7333 c-41 -20 -76 -40 -78 -44 -2 -5 -9 -9 -16 -9 -8 0 -25
-12 -40 -27 -15 -14 -41 -37 -58 -50 l-32 -23 31 0 c23 0 39 9 61 35 17 19 69
55 115 80 47 25 88 52 91 60 7 19 14 21 -74 -22z"/>
<path d="M2061 7351 c-10 -6 -10 -10 -1 -16 13 -8 24 -1 19 14 -3 6 -10 7 -18
2z"/>
<path d="M1938 7343 c-10 -2 -18 -9 -18 -14 0 -14 20 -11 36 6 16 15 13 16
-18 8z"/>
<path d="M5185 7342 c-17 -11 -47 -63 -41 -69 3 -3 11 6 17 21 7 14 16 26 20
26 4 0 9 7 13 15 6 17 5 18 -9 7z"/>
<path d="M6210 7336 c0 -2 7 -9 15 -16 12 -10 15 -10 15 4 0 9 -7 16 -15 16
-8 0 -15 -2 -15 -4z"/>
<path d="M5191 7294 c0 -11 3 -14 6 -6 3 7 2 16 -1 19 -3 4 -6 -2 -5 -13z"/>
<path d="M1709 7273 c-13 -17 -13 -17 6 -3 11 8 22 16 24 17 2 2 0 3 -6 3 -6
0 -17 -8 -24 -17z"/>
<path d="M2227 7283 c-4 -3 -7 -11 -7 -17 0 -6 5 -5 12 2 6 6 9 14 7 17 -3 3
-9 2 -12 -2z"/>
<path d="M6160 7275 c0 -8 5 -15 10 -15 6 0 10 7 10 15 0 8 -4 15 -10 15 -5 0
-10 -7 -10 -15z"/>
<path d="M4851 7242 c-8 -29 -9 -48 -1 -61 13 -24 14 -59 1 -45 -5 5 -11 18
-14 29 -4 16 -5 14 -6 -6 -1 -19 14 -43 47 -80 67 -76 84 -89 100 -77 7 6 16
8 19 4 4 -4 1 -11 -6 -15 -11 -7 -9 -12 9 -21 17 -9 25 -9 34 0 8 8 7 10 -6 5
-11 -4 -18 -2 -18 4 0 6 4 11 9 11 5 0 11 7 14 14 4 9 1 13 -6 11 -7 -2 -28
-1 -47 3 -29 7 -35 12 -35 35 -1 35 -22 58 -35 38 -17 -28 -36 11 -43 84 -4
54 -3 65 5 48 13 -26 76 -49 92 -33 14 14 29 12 20 -2 -5 -8 -2 -9 10 -5 10 4
26 2 36 -3 10 -6 21 -6 24 -2 3 4 -34 23 -82 42 -48 19 -92 41 -99 49 -9 13
-13 8 -22 -27z m108 -37 c2 -3 2 -7 0 -9 -7 -7 -79 25 -79 35 0 8 67 -14 79
-26z m-19 -145 c0 -5 -7 -10 -15 -10 -8 0 -15 5 -15 10 0 6 7 10 15 10 8 0 15
-4 15 -10z"/>
<path d="M2130 7260 c-8 -5 -10 -10 -5 -10 6 0 17 5 25 10 8 5 11 10 5 10 -5
0 -17 -5 -25 -10z"/>
<path d="M1920 7234 c0 -8 5 -12 10 -9 6 3 10 10 10 16 0 5 -4 9 -10 9 -5 0
-10 -7 -10 -16z"/>
<path d="M5090 7228 c-22 -24 -26 -38 -10 -38 6 0 10 7 10 15 0 8 4 15 9 15 5
0 11 7 15 15 8 21 0 19 -24 -7z"/>
<path d="M6320 7226 c0 -14 5 -26 10 -26 6 0 10 9 10 19 0 11 -4 23 -10 26 -6
4 -10 -5 -10 -19z"/>
<path d="M1870 7219 c0 -5 5 -7 10 -4 6 3 10 8 10 11 0 2 -4 4 -10 4 -5 0 -10
-5 -10 -11z"/>
<path d="M2066 7221 c-4 -7 -5 -15 -2 -18 9 -9 19 4 14 18 -4 11 -6 11 -12 0z"/>
<path d="M6137 7203 c-12 -11 -8 -23 8 -23 11 0 15 -12 16 -42 1 -26 4 -34 6
-19 3 13 2 39 -2 57 -6 33 -14 41 -28 27z"/>
<path d="M6000 7180 c0 -11 -7 -23 -15 -26 -8 -4 -15 -18 -15 -33 0 -22 -7
-30 -35 -41 -19 -8 -35 -20 -35 -27 0 -7 -9 -13 -19 -13 -23 0 -34 -23 -18
-39 8 -8 7 -11 -6 -11 -9 0 -17 -4 -17 -9 0 -4 -14 -23 -31 -40 -17 -18 -27
-37 -23 -41 11 -10 47 18 57 43 7 18 42 23 52 7 3 -5 1 -10 -4 -10 -6 0 -11
-9 -11 -20 0 -20 1 -20 31 2 l31 23 -31 26 c-29 24 -30 26 -15 47 18 26 66 53
109 62 25 5 31 11 33 39 2 19 1 44 -2 57 -8 29 -36 32 -36 4z"/>
<path d="M4880 7170 c0 -11 2 -20 4 -20 2 0 6 9 9 20 3 11 1 20 -4 20 -5 0 -9
-9 -9 -20z"/>
<path d="M5840 7169 c0 -5 5 -7 10 -4 6 3 10 8 10 11 0 2 -4 4 -10 4 -5 0 -10
-5 -10 -11z"/>
<path d="M5875 7109 c-10 -14 -1 -21 19 -13 9 3 13 10 10 15 -7 12 -21 11 -29
-2z"/>
<path d="M5740 7097 c-64 -79 -91 -128 -72 -134 21 -8 13 -23 -10 -20 -16 1
-27 -8 -44 -36 l-21 -39 22 -24 c18 -19 29 -23 49 -18 29 7 34 22 11 30 -8 4
-15 15 -15 26 0 15 4 18 23 13 38 -12 42 -11 45 18 2 16 -1 27 -9 27 -8 0 -8
4 1 15 14 17 40 20 40 4 0 -5 5 -7 10 -4 13 8 13 52 1 59 -5 4 -12 0 -14 -6
-4 -9 -6 -8 -6 3 -1 16 64 42 90 37 28 -7 17 21 -13 33 -65 25 -79 28 -88 16z"/>
<path d="M5040 7090 c0 -13 11 -13 30 0 12 8 11 10 -7 10 -13 0 -23 -4 -23
-10z"/>
<path d="M6240 7078 c0 -19 2 -20 10 -8 13 19 13 30 0 30 -5 0 -10 -10 -10
-22z"/>
<path d="M6044 7048 c-4 -13 -2 -24 5 -26 6 -2 11 -11 12 -20 0 -10 3 -12 5
-5 3 7 0 21 -6 32 -9 17 -8 21 5 21 8 0 15 5 15 10 0 19 -29 10 -36 -12z"/>
<path d="M1085 7011 c-6 -5 -34 -16 -62 -26 -68 -21 -73 -30 -16 -28 30 1 49
7 58 20 13 17 14 16 15 -10 0 -16 4 -26 10 -22 6 3 10 13 10 21 0 9 10 24 23
35 l22 18 -25 1 c-15 0 -30 -4 -35 -9z"/>
<path d="M6180 7010 c0 -5 5 -10 10 -10 6 0 10 5 10 10 0 6 -4 10 -10 10 -5 0
-10 -4 -10 -10z"/>
<path d="M6031 6995 c0 -11 4 -29 9 -40 8 -18 9 -18 9 5 0 14 -4 32 -9 40 -8
12 -10 12 -9 -5z"/>
<path d="M6071 6964 c0 -11 3 -14 6 -6 3 7 2 16 -1 19 -3 4 -6 -2 -5 -13z"/>
<path d="M6015 6950 c-4 -6 1 -20 11 -31 23 -25 28 -19 10 15 -9 17 -16 23
-21 16z"/>
<path d="M5294 6919 c-17 -19 -18 -21 -1 -30 22 -13 22 -25 -2 -32 -14 -3 -20
-16 -23 -46 -2 -22 0 -41 5 -41 4 0 19 -12 32 -27 23 -27 23 -28 44 -9 21 19
21 19 27 -12 11 -53 22 -36 19 28 -1 34 2 63 7 66 12 8 10 52 -3 60 -6 3 -9
19 -7 35 7 43 -17 36 -29 -8 l-10 -38 -2 38 c-1 29 -5 37 -19 37 -11 0 -27 -9
-38 -21z"/>
<path d="M983 6923 c-13 -2 -23 -11 -23 -19 0 -11 11 -14 43 -12 36 3 43 6 39
21 -4 17 -15 19 -59 10z"/>
<path d="M5440 6910 c0 -5 5 -10 10 -10 6 0 10 5 10 10 0 6 -4 10 -10 10 -5 0
-10 -4 -10 -10z"/>
<path d="M5147 6893 c-3 -5 3 -20 13 -33 l19 -25 -2 29 c-2 29 -20 45 -30 29z"/>
<path d="M5506 6881 c-4 -6 -3 -11 2 -11 10 0 -1 -76 -12 -87 -5 -6 -10 23
-10 68 0 10 -5 15 -13 12 -15 -6 -18 -83 -3 -83 6 0 10 -5 10 -11 0 -6 -9 -8
-22 -4 -21 7 -21 6 -15 -59 6 -67 -2 -83 -30 -55 -9 9 -10 7 -6 -10 4 -15 1
-21 -10 -21 -8 0 -17 6 -20 13 -10 27 -19 -5 -11 -35 12 -39 45 -52 42 -16 -2
15 2 23 12 23 25 0 52 37 48 67 -3 17 1 29 9 33 9 3 12 12 8 25 -5 16 -2 20
14 20 16 0 21 6 21 25 0 14 5 25 10 25 6 0 10 -4 10 -10 0 -5 8 -10 18 -10 16
1 16 1 -1 14 -17 13 -14 46 4 46 5 0 9 5 9 11 0 7 -10 9 -26 5 -14 -4 -23 -3
-20 2 2 4 1 14 -3 21 -6 9 -11 10 -15 2z"/>
<path d="M5752 6864 c-9 -10 -10 -19 -3 -31 8 -15 10 -14 16 10 9 33 5 40 -13
21z"/>
<path d="M5221 6813 c-1 -18 4 -33 9 -33 12 0 12 17 0 45 -7 17 -9 15 -9 -12z"/>
<path d="M5172 6766 c2 -22 9 -41 16 -44 11 -3 12 0 3 17 -7 12 -10 25 -7 29
3 4 0 14 -5 22 -7 11 -9 4 -7 -24z"/>
<path d="M6486 6773 c11 -45 19 -46 26 -3 2 17 -2 26 -15 28 -15 3 -17 -1 -11
-25z"/>
<path d="M5680 6770 c0 -5 4 -10 9 -10 6 0 13 5 16 10 3 6 -1 10 -9 10 -9 0
-16 -4 -16 -10z"/>
<path d="M6300 6769 c0 -5 5 -7 10 -4 6 3 10 8 10 11 0 2 -4 4 -10 4 -5 0 -10
-5 -10 -11z"/>
<path d="M6262 6745 c0 -16 2 -22 5 -12 2 9 2 23 0 30 -3 6 -5 -1 -5 -18z"/>
<path d="M5239 6755 c-4 -25 4 -50 19 -62 15 -11 15 -14 2 -23 -11 -7 -11 -10
-2 -10 22 0 23 24 3 65 -11 22 -21 36 -22 30z"/>
<path d="M6290 6715 c0 -8 -7 -15 -15 -15 -9 0 -15 -9 -15 -25 0 -17 6 -25 17
-25 13 0 14 3 5 12 -17 17 -15 28 7 28 10 0 21 -7 25 -15 6 -18 36 -9 36 11 0
8 5 14 10 14 6 0 10 5 10 11 0 7 -10 9 -25 7 -14 -3 -28 -1 -31 3 -8 14 -24
10 -24 -6z"/>
<path d="M6400 6718 c0 -7 14 -14 30 -15 21 -2 30 2 30 12 0 10 -10 15 -30 15
-17 0 -30 -5 -30 -12z"/>
<path d="M5490 6690 c0 -5 5 -10 10 -10 6 0 10 5 10 10 0 6 -4 10 -10 10 -5 0
-10 -4 -10 -10z"/>
<path d="M5340 6656 c0 -22 3 -27 11 -19 8 8 8 16 0 30 -9 16 -10 14 -11 -11z"/>
<path d="M5291 6648 c-1 -18 5 -29 19 -33 11 -3 20 -10 20 -15 0 -4 7 -10 15
-14 25 -9 17 14 -8 25 -13 6 -29 23 -34 37 l-11 27 -1 -27z"/>
<path d="M5498 6634 c-11 -10 29 -77 54 -91 13 -7 17 -12 11 -13 -7 0 -13 -8
-13 -17 1 -13 11 -7 36 22 34 38 35 40 14 43 -12 2 -25 13 -27 23 -4 14 -13
19 -27 17 -11 -2 -26 3 -31 10 -6 7 -14 10 -17 6z"/>
<path d="M5434 6565 c-3 -14 -13 -25 -22 -25 -21 0 -13 -6 18 -13 23 -6 26 -3
28 23 3 37 -15 49 -24 15z"/>
<path d="M6221 6554 c0 -11 3 -14 6 -6 3 7 2 16 -1 19 -3 4 -6 -2 -5 -13z"/>
<path d="M5840 6534 c0 -12 -11 -26 -25 -34 -30 -16 -32 -27 -5 -35 26 -8 27
-45 1 -45 -22 0 -46 -25 -33 -34 6 -3 23 6 39 22 23 21 37 26 66 24 28 -2 37
1 37 12 0 11 9 16 27 16 21 0 24 3 15 12 -9 9 -21 8 -50 -1 -21 -7 -47 -12
-57 -10 -27 6 -31 29 -5 29 17 0 20 4 15 23 -10 32 -25 45 -25 21z"/>
<path d="M5510 6525 c10 -12 16 -13 27 -4 7 7 11 14 8 18 -3 3 -10 -1 -15 -9
-7 -10 -10 -11 -10 -2 0 6 -5 12 -11 12 -8 0 -8 -5 1 -15z"/>
<path d="M1431 6521 c-8 -5 -10 -14 -7 -20 8 -13 46 -15 46 -2 0 16 -25 30
-39 22z"/>
<path d="M5742 6509 c2 -7 10 -15 17 -17 8 -3 12 1 9 9 -2 7 -10 15 -17 17 -8
3 -12 -1 -9 -9z"/>
<path d="M5930 6510 c8 -5 22 -10 30 -10 13 0 13 1 0 10 -8 5 -22 10 -30 10
-13 0 -13 -1 0 -10z"/>
<path d="M6000 6496 c0 -10 59 -36 81 -36 18 0 19 -2 9 -15 -7 -9 -10 -19 -6
-22 4 -4 11 -1 16 7 7 11 14 12 32 3 13 -6 31 -14 42 -17 10 -4 16 -12 13 -20
-4 -9 0 -12 11 -10 9 2 22 1 27 -3 10 -8 38 -65 35 -72 -1 -3 73 -42 103 -54
11 -4 17 -1 17 8 0 8 -6 12 -13 9 -20 -7 -107 91 -128 144 -10 26 -18 39 -19
29 0 -10 5 -27 10 -38 16 -28 2 -23 -41 16 -24 21 -60 40 -96 50 -32 9 -66 19
-75 21 -10 3 -18 3 -18 0z"/>
<path d="M2030 6408 c0 -19 2 -20 10 -8 13 19 13 30 0 30 -5 0 -10 -10 -10
-22z"/>
<path d="M6107 6389 c-3 -13 -1 -19 6 -16 15 5 22 37 9 37 -5 0 -12 -9 -15
-21z"/>
<path d="M5750 6383 c0 -20 -63 -73 -86 -73 -17 0 -28 -7 -31 -20 -3 -11 -9
-20 -14 -20 -5 0 -9 -7 -9 -16 0 -10 5 -14 15 -10 21 8 27 -12 17 -59 -9 -46
7 -128 24 -121 7 3 15 -2 18 -10 3 -8 19 -14 39 -14 31 0 34 3 35 30 0 21 -5
31 -21 36 -18 6 -19 8 -5 18 19 14 14 51 -12 78 -14 15 -17 25 -10 39 6 10 10
27 10 38 0 11 9 22 19 26 15 5 20 15 19 45 0 22 -2 40 -4 40 -2 0 -4 -3 -4 -7z
m-93 -115 c-3 -8 -6 -5 -6 6 -1 11 2 17 5 13 3 -3 4 -12 1 -19z m31 -147 c11
-7 11 -9 -1 -14 -16 -6 -27 0 -27 15 0 10 11 10 28 -1z"/>
<path d="M1032 6360 c0 -14 2 -19 5 -12 2 6 2 18 0 25 -3 6 -5 1 -5 -13z"/>
<path d="M6080 6351 c0 -25 6 -27 13 -6 4 8 2 17 -3 20 -6 4 -10 -3 -10 -14z"/>
<path d="M5751 6284 c0 -11 3 -14 6 -6 3 7 2 16 -1 19 -3 4 -6 -2 -5 -13z"/>
<path d="M1500 6272 c0 -11 69 -12 76 -1 3 5 -13 9 -35 9 -23 0 -41 -4 -41 -8z"/>
<path d="M6000 6264 c0 -8 5 -12 10 -9 6 4 8 11 5 16 -9 14 -15 11 -15 -7z"/>
<path d="M6110 6265 c0 -8 5 -15 10 -15 6 0 10 7 10 15 0 8 -4 15 -10 15 -5 0
-10 -7 -10 -15z"/>
<path d="M6260 6270 c0 -5 4 -10 9 -10 6 0 13 5 16 10 3 6 -1 10 -9 10 -9 0
-16 -4 -16 -10z"/>
<path d="M1539 6243 c-1 -5 -1 -11 0 -15 0 -5 -4 -8 -11 -8 -6 0 -8 -3 -5 -6
8 -8 37 14 37 27 0 11 -20 12 -21 2z"/>
<path d="M5720 6230 c0 -5 5 -10 10 -10 6 0 10 5 10 10 0 6 -4 10 -10 10 -5 0
-10 -4 -10 -10z"/>
<path d="M6077 6213 c6 -15 29 -18 37 -4 3 5 -5 11 -18 13 -17 4 -23 1 -19 -9z"/>
<path d="M1120 6200 c6 -11 17 -20 25 -20 23 0 17 16 -10 28 -24 11 -25 10
-15 -8z"/>
<path d="M5816 6205 c-3 -8 0 -14 6 -12 7 1 15 -11 18 -28 5 -25 7 -27 13 -12
14 36 8 67 -12 67 -10 0 -21 -7 -25 -15z"/>
<path d="M5517 6172 c-10 -10 -14 -21 -11 -24 3 -4 -4 -9 -15 -13 -12 -3 -21
-11 -21 -16 0 -14 18 -11 41 9 11 9 33 27 47 39 l27 23 -26 0 c-14 0 -33 -8
-42 -18z"/>
<path d="M1810 6151 c0 -5 7 -16 15 -24 8 -8 12 -17 9 -20 -12 -11 8 -47 26
-47 10 0 30 -13 43 -30 29 -34 44 -37 63 -12 19 24 17 53 -5 82 -16 20 -22 22
-34 11 -13 -10 -18 -8 -29 16 -10 22 -21 29 -51 31 -20 2 -37 -1 -37 -7z"/>
<path d="M4764 6130 c-22 -9 -37 -34 -27 -44 4 -3 15 1 25 10 14 14 20 14 33
4 9 -7 15 -8 15 -2 0 6 3 17 6 26 7 18 -16 21 -52 6z"/>
<path d="M5780 6083 c0 -25 32 -44 47 -28 8 9 4 16 -18 29 -28 16 -29 16 -29
-1z"/>
<path d="M6320 6080 c0 -11 -4 -20 -10 -20 -5 0 -10 -8 -10 -18 0 -10 -13 -29
-30 -42 -16 -14 -29 -30 -30 -36 0 -6 -12 -17 -27 -25 -16 -8 -32 -20 -36 -26
-4 -7 -12 -13 -17 -13 -15 0 -57 -46 -63 -69 -3 -13 0 -21 12 -23 20 -5 131
63 131 79 0 7 5 13 10 13 6 0 10 8 10 19 0 10 7 24 15 31 8 7 15 18 15 26 0 7
7 19 15 27 15 15 33 97 21 97 -3 0 -6 -9 -6 -20z"/>
<path d="M4594 6059 c-54 -7 -99 -30 -114 -60 -14 -25 -13 -29 13 -39 l22 -9
-22 0 c-13 -1 -23 -6 -23 -12 0 -7 10 -9 26 -5 18 5 32 2 45 -10 17 -15 20
-15 47 5 16 11 32 18 35 15 5 -6 67 54 67 65 -1 3 -11 18 -23 32 -20 23 -27
25 -73 18z"/>
<path d="M5671 6024 c0 -11 3 -14 6 -6 3 7 2 16 -1 19 -3 4 -6 -2 -5 -13z"/>
<path d="M5777 6002 c-3 -4 -1 -28 5 -53 6 -24 10 -56 9 -72 -1 -20 5 -30 24
-39 14 -6 25 -14 25 -17 0 -3 10 -7 23 -7 12 -1 42 -4 67 -8 82 -11 85 -11 83
2 -4 15 9 16 25 0 14 -14 42 6 42 32 0 15 -15 18 -107 25 -60 4 -116 8 -126 8
-14 1 -17 7 -13 27 3 14 3 19 0 13 -12 -28 -23 -11 -26 39 -3 47 -18 72 -31
50z"/>
<path d="M1760 5932 c0 -5 3 -12 8 -16 4 -4 8 -24 9 -44 1 -20 4 -57 7 -82 3
-25 7 -74 10 -110 8 -111 25 -246 35 -271 7 -17 10 -19 10 -6 2 41 51 -7 51
-50 0 -18 -48 -16 -53 2 -4 11 -4 10 -3 -2 1 -11 11 -19 26 -21 34 -5 47 -19
32 -34 -20 -20 -14 -32 24 -51 38 -18 57 -16 36 5 -7 7 -12 43 -12 90 0 45 -5
87 -12 98 -11 18 -9 24 19 50 17 16 33 35 36 42 4 9 8 10 14 2 4 -6 19 -11 32
-10 13 0 26 -5 28 -11 3 -9 -6 -13 -26 -13 -30 0 -31 -1 -31 -48 0 -36 5 -54
20 -67 15 -14 20 -31 20 -72 0 -29 -4 -53 -9 -53 -14 0 -19 -46 -6 -64 7 -9
23 -16 36 -15 l24 0 -22 9 c-21 9 -22 13 -16 77 3 37 10 71 15 74 5 3 6 22 3
43 -5 24 -3 36 4 36 6 0 12 -12 13 -27 2 -44 5 -57 13 -76 4 -9 2 -23 -4 -31
-8 -9 -7 -25 3 -59 8 -27 10 -47 4 -47 -5 0 -6 -4 -3 -10 13 -22 33 16 31 60
-1 25 2 50 6 56 10 13 -8 125 -21 134 -7 4 -5 15 3 31 8 17 12 45 8 78 -4 42
-2 51 12 51 12 0 16 10 16 40 0 42 14 54 23 20 8 -30 45 -26 57 6 6 14 14 22
20 19 14 -9 12 -32 -2 -38 -7 -3 -1 -10 15 -16 18 -7 34 -8 46 -2 13 7 18 6
18 -3 0 -40 27 -105 49 -117 28 -14 31 -37 8 -53 -14 -11 -14 -13 0 -25 13
-11 16 -11 16 0 0 12 2 12 9 0 15 -24 37 8 43 62 5 43 -4 64 -15 35 -2 -8 -8
-9 -13 -4 -5 5 -4 11 4 13 6 3 12 13 12 23 0 10 5 22 11 26 19 11 -12 23 -43
17 -23 -4 -28 -2 -28 13 0 21 -37 46 -116 80 -28 11 -63 29 -78 39 -72 47
-191 105 -217 105 -11 0 -19 6 -19 13 0 6 -17 20 -38 29 -20 10 -59 31 -87 48
-53 31 -65 35 -65 22z m50 -58 c0 -8 -5 -12 -10 -9 -6 4 -8 11 -5 16 9 14 15
11 15 -7z m45 -14 c3 -5 1 -10 -4 -10 -6 0 -11 5 -11 10 0 6 2 10 4 10 3 0 8
-4 11 -10z m40 -30 c-3 -5 7 -11 22 -13 21 -4 20 -4 -7 -3 -25 1 -36 6 -38 18
-2 13 1 16 12 12 9 -3 14 -10 11 -14z m104 -65 c-6 -6 -13 -5 -19 5 -6 9 -5
17 3 22 15 9 29 -14 16 -27z m101 -34 c0 -6 -4 -13 -10 -16 -5 -3 -10 1 -10 9
0 9 5 16 10 16 6 0 10 -4 10 -9z m110 -64 c12 -4 12 -6 -2 -6 -27 -2 -48 10
-48 27 0 14 2 14 18 0 9 -9 24 -18 32 -21z m150 -67 c0 -5 -2 -10 -4 -10 -3 0
-8 5 -11 10 -3 6 -1 10 4 10 6 0 11 -4 11 -10z m-523 -82 c-2 -13 -4 -3 -4 22
0 25 2 35 4 23 2 -13 2 -33 0 -45z m243 52 c0 -5 -4 -10 -9 -10 -6 0 -13 5
-16 10 -3 6 1 10 9 10 9 0 16 -4 16 -10z m360 6 c0 -3 -4 -8 -10 -11 -5 -3
-10 -1 -10 4 0 6 5 11 10 11 6 0 10 -2 10 -4z m-34 -51 c-4 -14 -13 -25 -21
-25 -14 0 -14 4 0 31 19 35 30 32 21 -6z"/>
<path d="M6008 5893 c7 -3 16 -2 19 1 4 3 -2 6 -13 5 -11 0 -14 -3 -6 -6z"/>
<path d="M6412 5858 c-6 -6 -12 -17 -12 -24 0 -18 -27 -37 -35 -24 -5 8 -10 8
-20 0 -10 -8 -14 -7 -18 2 -4 10 -6 10 -6 1 -1 -7 -11 -13 -23 -13 -22 -1 -22
-1 -4 -11 14 -9 20 -8 27 2 7 12 9 12 9 0 0 -11 3 -11 15 -1 20 17 31 -10 15
-39 -7 -14 -7 -21 0 -21 5 0 10 7 10 15 0 8 6 15 14 15 8 0 22 20 31 44 19 49
18 75 -3 54z"/>
<path d="M3131 5764 c0 -11 3 -14 6 -6 3 7 2 16 -1 19 -3 4 -6 -2 -5 -13z"/>
<path d="M6410 5750 c0 -5 7 -10 15 -10 8 0 15 5 15 10 0 6 -7 10 -15 10 -8 0
-15 -4 -15 -10z"/>
<path d="M6140 5713 c-62 -29 -70 -38 -69 -73 0 -14 3 -19 6 -12 2 6 11 12 19
12 7 0 25 19 40 41 l26 41 57 -4 c31 -2 76 -13 99 -25 38 -18 42 -19 42 -4 0
12 -18 22 -64 34 -83 22 -91 22 -156 -10z"/>
<path d="M1457 5713 c-4 -6 -3 -23 3 -38 14 -38 12 -65 -5 -65 -8 0 -15 -5
-15 -11 0 -6 10 -9 23 -7 17 2 22 10 22 36 1 17 -3 32 -7 32 -3 0 -8 15 -10
33 -2 19 -6 27 -11 20z"/>
<path d="M5695 5680 c3 -5 8 -10 11 -10 2 0 4 5 4 10 0 6 -5 10 -11 10 -5 0
-7 -4 -4 -10z"/>
<path d="M2262 5573 c6 -7 17 -13 24 -13 8 0 14 -4 14 -10 0 -5 5 -10 10 -10
6 0 10 9 10 19 0 14 -9 20 -35 23 -27 3 -32 1 -23 -9z"/>
<path d="M2172 5563 c2 -12 12 -18 28 -18 16 0 26 6 28 18 3 13 -3 17 -28 17
-25 0 -31 -4 -28 -17z"/>
<path d="M2490 5551 c0 -13 28 -33 41 -29 6 2 0 12 -15 21 -14 10 -26 13 -26
8z"/>
<path d="M2481 5518 c-1 -10 3 -18 8 -18 5 0 8 -8 7 -17 0 -10 5 -17 13 -15
10 2 12 -6 7 -35 -4 -21 -8 -50 -8 -65 0 -16 -4 -28 -7 -28 -4 0 -5 -16 -3
-35 2 -20 8 -32 14 -29 5 4 8 20 6 36 -4 23 1 33 24 49 l29 21 -6 -33 c-5 -28
-4 -31 10 -19 18 15 20 58 3 97 -12 30 -14 37 -17 68 -2 18 -3 18 -12 -3 -10
-26 -35 -25 -33 2 1 9 -4 16 -11 16 -7 0 -16 6 -18 13 -3 7 -6 5 -6 -5z"/>
<path d="M2286 5493 c6 -4 16 -17 23 -28 11 -19 11 -19 9 5 -2 16 -10 26 -23
28 -12 2 -16 0 -9 -5z"/>
<path d="M2180 5434 c0 -11 -5 -14 -17 -9 -14 5 -15 3 -7 -5 15 -15 54 -3 54
16 0 8 -7 14 -15 14 -8 0 -15 -7 -15 -16z"/>
<path d="M5841 5414 c0 -11 3 -14 6 -6 3 7 2 16 -1 19 -3 4 -6 -2 -5 -13z"/>
<path d="M2210 5385 c7 -8 16 -15 21 -15 5 0 9 7 9 15 0 9 -9 15 -21 15 -18 0
-19 -2 -9 -15z"/>
<path d="M5685 5389 c-11 -16 -3 -17 40 -4 l40 13 -37 1 c-20 1 -40 -4 -43
-10z"/>
<path d="M2437 5363 c-15 -15 -6 -33 17 -33 19 0 23 4 19 20 -5 20 -23 26 -36
13z"/>
<path d="M2236 5344 c-10 -25 -7 -34 9 -28 8 4 15 15 15 25 0 23 -16 25 -24 3z"/>
<path d="M2610 5350 c0 -5 5 -10 11 -10 5 0 7 5 4 10 -3 6 -8 10 -11 10 -2 0
-4 -4 -4 -10z"/>
<path d="M5625 5353 c11 -3 26 -10 33 -15 8 -7 12 -7 12 0 0 12 -25 22 -48 21
-13 -1 -12 -3 3 -6z"/>
<path d="M5505 5343 c-11 -3 -24 -9 -29 -14 -6 -5 -18 -9 -28 -9 -10 0 -18 -7
-18 -15 0 -9 10 -15 26 -15 14 0 34 -5 45 -10 15 -8 19 -7 19 5 0 8 -7 15 -15
15 -18 0 -20 16 -3 26 6 4 25 11 42 15 26 6 27 7 6 7 -14 0 -34 -2 -45 -5z"/>
<path d="M5698 5343 c12 -2 32 -2 45 0 12 2 2 4 -23 4 -25 0 -35 -2 -22 -4z"/>
<path d="M2597 5310 c12 -5 26 -17 32 -27 6 -11 11 -13 11 -5 0 19 -26 42 -47
41 -15 0 -15 -2 4 -9z"/>
<path d="M5144 5295 c-3 -8 -4 -20 -1 -27 3 -7 6 -3 6 9 1 12 7 24 14 26 9 4
9 6 -1 6 -7 1 -15 -6 -18 -14z"/>
<path d="M5671 5284 c0 -11 3 -14 6 -6 3 7 2 16 -1 19 -3 4 -6 -2 -5 -13z"/>
<path d="M2395 5279 c-4 -6 -4 -13 -1 -16 8 -8 36 5 36 17 0 13 -27 13 -35 -1z"/>
<path d="M5440 5270 c0 -5 5 -10 11 -10 5 0 7 5 4 10 -3 6 -8 10 -11 10 -2 0
-4 -4 -4 -10z"/>
<path d="M2565 5260 c-13 -6 -15 -9 -5 -9 8 -1 25 -4 38 -7 16 -5 22 -2 22 10
0 17 -23 20 -55 6z"/>
<path d="M2656 5263 c5 -5 12 -12 16 -18 4 -6 8 -2 8 8 0 9 -7 17 -17 17 -9 0
-12 -3 -7 -7z"/>
<path d="M2495 5250 c3 -5 10 -10 16 -10 5 0 9 5 9 10 0 6 -7 10 -16 10 -8 0
-12 -4 -9 -10z"/>
<path d="M5697 5240 c3 -11 7 -20 9 -20 2 0 8 9 14 20 9 17 8 20 -9 20 -14 0
-18 -5 -14 -20z"/>
<path d="M2056 5241 c-3 -5 1 -14 9 -21 13 -10 15 -9 15 9 0 21 -14 28 -24 12z"/>
<path d="M5870 5231 c0 -6 5 -13 10 -16 6 -3 10 1 10 9 0 9 -4 16 -10 16 -5 0
-10 -4 -10 -9z"/>
<path d="M2325 5220 c3 -5 12 -10 19 -10 8 0 19 -7 26 -15 7 -8 16 -15 21 -15
14 0 10 40 -3 41 -7 0 -26 3 -41 5 -19 3 -26 1 -22 -6z"/>
<path d="M2580 5199 c0 -5 5 -7 10 -4 6 3 10 8 10 11 0 2 -4 4 -10 4 -5 0 -10
-5 -10 -11z"/>
<path d="M3140 5140 c0 -5 5 -10 11 -10 5 0 7 5 4 10 -3 6 -8 10 -11 10 -2 0
-4 -4 -4 -10z"/>
<path d="M2401 5123 c-1 -20 -7 -23 -43 -23 -55 0 -46 -7 20 -14 30 -3 52 -1
52 4 0 6 -4 10 -9 10 -5 0 -12 10 -14 23 l-4 22 -2 -22z"/>
<path d="M2530 5130 c0 -5 5 -10 11 -10 5 0 7 5 4 10 -3 6 -8 10 -11 10 -2 0
-4 -4 -4 -10z"/>
<path d="M3736 5118 c-24 -33 -19 -45 5 -14 12 15 19 29 16 32 -3 3 -12 -5
-21 -18z"/>
<path d="M5063 5109 c-18 -16 -33 -34 -33 -40 0 -5 10 1 22 14 13 12 32 30 43
39 11 10 16 17 10 18 -5 0 -25 -14 -42 -31z"/>
<path d="M10 5099 c0 -15 7 -32 15 -39 12 -10 15 -9 15 7 0 10 -7 28 -15 39
-14 18 -14 18 -15 -7z"/>
<path d="M3155 5110 c-3 -5 -1 -10 4 -10 6 0 11 5 11 10 0 6 -2 10 -4 10 -3 0
-8 -4 -11 -10z"/>
<path d="M2634 5095 c8 -8 17 -15 20 -15 3 0 6 7 6 15 0 9 -9 15 -21 15 -18 0
-19 -2 -5 -15z"/>
<path d="M2500 5076 c0 -8 -6 -16 -12 -19 -7 -2 -10 -8 -5 -12 4 -5 14 0 22
11 17 23 19 34 5 34 -5 0 -10 -6 -10 -14z"/>
<path d="M3701 5054 c0 -11 3 -14 6 -6 3 7 2 16 -1 19 -3 4 -6 -2 -5 -13z"/>
<path d="M2317 5034 c3 -8 9 -14 13 -14 5 0 17 -3 27 -7 15 -6 16 -4 5 9 -17
21 -52 31 -45 12z"/>
<path d="M2662 5038 c-7 -9 0 -23 24 -48 l34 -35 0 29 c0 17 -9 36 -22 47 -25
22 -23 22 -36 7z"/>
<path d="M17 5029 c-21 -13 -22 -42 -1 -74 21 -33 33 -32 31 3 -1 19 2 26 13
24 12 -3 13 -1 3 9 -7 7 -13 21 -13 31 0 20 -7 22 -33 7z"/>
<path d="M2420 5025 c0 -8 7 -15 16 -15 14 0 14 3 4 15 -7 8 -14 15 -16 15 -2
0 -4 -7 -4 -15z"/>
<path d="M4985 5027 c-4 -10 -5 -21 -1 -24 10 -10 18 4 13 24 -4 17 -4 17 -12
0z"/>
<path d="M2510 5010 c0 -5 7 -10 15 -10 8 0 15 5 15 10 0 6 -7 10 -15 10 -8 0
-15 -4 -15 -10z"/>
<path d="M2568 4980 c-2 -28 0 -40 9 -40 7 0 13 5 13 12 0 6 8 20 18 31 9 11
12 17 6 14 -7 -4 -14 0 -18 8 -10 28 -24 15 -28 -25z"/>
<path d="M4955 5000 c-3 -5 -1 -10 4 -10 6 0 11 5 11 10 0 6 -2 10 -4 10 -3 0
-8 -4 -11 -10z"/>
<path d="M3290 4990 c0 -5 5 -10 10 -10 6 0 10 5 10 10 0 6 -4 10 -10 10 -5 0
-10 -4 -10 -10z"/>
<path d="M3766 4974 c-4 -10 -1 -14 6 -12 15 5 23 28 10 28 -5 0 -13 -7 -16
-16z"/>
<path d="M2430 4965 c7 -8 16 -15 21 -15 5 0 9 7 9 15 0 9 -9 15 -21 15 -18 0
-19 -2 -9 -15z"/>
<path d="M3800 4970 c0 -5 7 -10 15 -10 8 0 15 5 15 10 0 6 -7 10 -15 10 -8 0
-15 -4 -15 -10z"/>
<path d="M2277 4963 c-13 -12 -7 -33 9 -33 8 0 12 5 9 10 -3 6 1 10 9 10 9 0
16 -7 16 -15 0 -8 5 -15 10 -15 6 0 10 7 10 15 0 7 8 19 18 24 13 8 7 10 -29
11 -25 0 -49 -3 -52 -7z"/>
<path d="M2729 4957 c-1 -7 -1 -19 0 -27 2 -13 1 -13 -8 0 -8 11 -13 12 -22 3
-13 -13 -4 -33 17 -33 8 0 14 -5 14 -11 0 -5 5 -7 10 -4 6 3 10 18 10 33 0 21
2 24 10 12 5 -8 10 -28 10 -44 0 -38 6 -31 13 16 5 34 3 39 -24 52 -21 10 -29
11 -30 3z"/>
<path d="M3630 4955 c0 -8 4 -15 10 -15 5 0 7 7 4 15 -4 8 -8 15 -10 15 -2 0
-4 -7 -4 -15z"/>
<path d="M4518 4963 c6 -2 18 -2 25 0 6 3 1 5 -13 5 -14 0 -19 -2 -12 -5z"/>
<path d="M6138 4958 c17 -8 26 -8 34 0 9 9 4 12 -22 11 -33 0 -34 -1 -12 -11z"/>
<path d="M2510 4946 c0 -19 27 -28 34 -11 2 7 -2 16 -10 19 -22 8 -24 8 -24
-8z"/>
<path d="M3070 4950 c-9 -6 -10 -10 -3 -10 6 0 15 5 18 10 8 12 4 12 -15 0z"/>
<path d="M3290 4945 c0 -8 4 -15 10 -15 5 0 7 7 4 15 -4 8 -8 15 -10 15 -2 0
-4 -7 -4 -15z"/>
<path d="M4580 4946 c28 -17 50 -21 35 -7 -6 5 -21 12 -35 15 l-25 7 25 -15z"/>
<path d="M4460 4946 c0 -9 30 -14 35 -6 4 6 -3 10 -14 10 -12 0 -21 -2 -21 -4z"/>
<path d="M2095 4930 c4 -6 11 -8 16 -5 14 9 11 15 -7 15 -8 0 -12 -5 -9 -10z"/>
<path d="M2242 4920 c0 -14 2 -19 5 -12 2 6 2 18 0 25 -3 6 -5 1 -5 -13z"/>
<path d="M2450 4926 c0 -9 5 -16 10 -16 6 0 10 4 10 9 0 6 -4 13 -10 16 -5 3
-10 -1 -10 -9z"/>
<path d="M2955 4930 c3 -5 8 -10 11 -10 2 0 4 5 4 10 0 6 -5 10 -11 10 -5 0
-7 -4 -4 -10z"/>
<path d="M2127 4924 c-8 -8 3 -34 14 -34 5 0 9 9 9 20 0 19 -11 26 -23 14z"/>
<path d="M12 4903 c-7 -12 -12 -32 -12 -45 1 -22 1 -22 16 5 8 16 14 36 12 45
-3 14 -6 14 -16 -5z"/>
<path d="M1865 4910 c-4 -6 5 -10 19 -10 14 0 26 5 26 10 0 6 -9 10 -19 10
-11 0 -23 -4 -26 -10z"/>
<path d="M3306 4898 c-17 -24 -20 -38 -8 -38 8 0 34 52 28 57 -2 3 -11 -6 -20
-19z"/>
<path d="M3410 4910 c0 -5 5 -10 10 -10 6 0 10 5 10 10 0 6 -4 10 -10 10 -5 0
-10 -4 -10 -10z"/>
<path d="M4635 4910 c3 -5 8 -10 11 -10 2 0 4 5 4 10 0 6 -5 10 -11 10 -5 0
-7 -4 -4 -10z"/>
<path d="M4500 4899 c0 -5 5 -7 10 -4 6 3 10 8 10 11 0 2 -4 4 -10 4 -5 0 -10
-5 -10 -11z"/>
<path d="M2090 4891 c0 -5 -9 -7 -20 -4 -24 6 -28 -22 -5 -31 8 -3 15 -1 15 4
0 5 7 7 15 4 10 -4 15 0 15 15 0 12 -4 21 -10 21 -5 0 -10 -4 -10 -9z"/>
<path d="M3430 4880 c0 -5 7 -7 15 -4 8 4 15 8 15 10 0 2 -7 4 -15 4 -8 0 -15
-4 -15 -10z"/>
<path d="M2247 4873 c-3 -5 -1 -16 2 -26 6 -17 8 -16 19 7 9 21 9 26 -3 26 -7
0 -16 -3 -18 -7z"/>
<path d="M3246 4861 c-4 -5 3 -7 14 -4 23 6 26 13 6 13 -8 0 -17 -4 -20 -9z"/>
<path d="M3372 4855 c-11 -13 -8 -15 16 -15 19 0 29 5 29 15 0 19 -28 19 -45
0z"/>
<path d="M4633 4838 c-1 -27 1 -29 7 -13 11 27 12 45 2 45 -5 0 -9 -15 -9 -32z"/>
<path d="M2183 4848 c2 -7 10 -13 17 -13 7 0 15 6 18 13 2 7 -5 12 -18 12 -13
0 -20 -5 -17 -12z"/>
<path d="M2385 4850 c4 -6 11 -8 16 -5 14 9 11 15 -7 15 -8 0 -12 -5 -9 -10z"/>
<path d="M3473 4837 c1 -15 5 -27 10 -27 10 0 9 22 -2 39 -7 10 -9 7 -8 -12z"/>
<path d="M3848 4843 c7 -3 16 -2 19 1 4 3 -2 6 -13 5 -11 0 -14 -3 -6 -6z"/>
<path d="M4602 4830 c0 -14 2 -19 5 -12 2 6 2 18 0 25 -3 6 -5 1 -5 -13z"/>
<path d="M2712 4823 c2 -11 11 -17 22 -15 9 2 24 -2 31 -8 8 -7 19 -9 25 -5
16 10 1 25 -25 25 -13 0 -27 5 -30 10 -10 17 -27 11 -23 -7z"/>
<path d="M2437 4824 c-8 -8 1 -24 14 -24 5 0 9 7 9 15 0 15 -12 20 -23 9z"/>
<path d="M3394 4819 c-9 -15 1 -21 26 -17 21 3 21 3 1 15 -14 9 -22 9 -27 2z"/>
<path d="M4653 4816 c4 -10 2 -25 -5 -34 -11 -13 -10 -14 10 -3 26 14 27 18 5
39 -16 16 -16 16 -10 -2z"/>
<path d="M2285 4810 c3 -5 8 -10 11 -10 2 0 4 5 4 10 0 6 -5 10 -11 10 -5 0
-7 -4 -4 -10z"/>
<path d="M2665 4800 c3 -5 8 -10 11 -10 2 0 4 5 4 10 0 6 -5 10 -11 10 -5 0
-7 -4 -4 -10z"/>
<path d="M3285 4800 c3 -5 8 -10 11 -10 2 0 4 5 4 10 0 6 -5 10 -11 10 -5 0
-7 -4 -4 -10z"/>
<path d="M4465 4780 c3 -5 8 -10 11 -10 2 0 4 5 4 10 0 6 -5 10 -11 10 -5 0
-7 -4 -4 -10z"/>
<path d="M4597 4770 c-7 -22 -9 -23 -20 -9 -18 24 -55 8 -51 -23 1 -12 3 -26
3 -30 1 -5 6 -8 11 -8 6 0 9 3 8 8 -3 15 15 44 21 33 11 -17 44 12 39 35 -3
16 -5 16 -11 -6z"/>
<path d="M2204 4758 c3 -13 5 -31 5 -40 1 -12 13 -18 49 -23 26 -3 55 -10 64
-16 10 -5 26 -9 35 -8 14 0 15 2 3 6 -8 3 -22 11 -30 18 -8 7 -32 15 -52 19
-28 5 -40 14 -50 36 -15 35 -30 40 -24 8z"/>
<path d="M2325 4759 c-24 -5 -27 -7 -13 -13 10 -5 16 -11 14 -15 -3 -4 -1 -13
4 -21 8 -13 12 -12 24 5 14 18 15 18 16 3 0 -10 4 -18 10 -18 10 0 3 26 -14
50 -8 11 -20 14 -41 9z"/>
<path d="M2248 4753 c7 -3 16 -2 19 1 4 3 -2 6 -13 5 -11 0 -14 -3 -6 -6z"/>
<path d="M2561 4734 c0 -11 3 -14 6 -6 3 7 2 16 -1 19 -3 4 -6 -2 -5 -13z"/>
<path d="M4416 4735 c10 -8 24 -14 29 -14 6 0 1 6 -9 14 -11 8 -24 15 -30 15
-5 0 -1 -7 10 -15z"/>
<path d="M2400 4730 c0 -5 10 -10 23 -10 18 0 19 2 7 10 -19 13 -30 13 -30 0z"/>
<path d="M4478 4733 c7 -3 16 -2 19 1 4 3 -2 6 -13 5 -11 0 -14 -3 -6 -6z"/>
<path d="M4475 4700 c-4 -6 6 -10 22 -10 22 0 25 2 13 10 -19 12 -27 12 -35 0z"/>
<path d="M2165 4680 c19 -21 45 -27 45 -10 0 11 -33 30 -51 30 -8 0 -5 -7 6
-20z"/>
<path d="M2400 4689 c0 -5 5 -7 10 -4 6 3 10 8 10 11 0 2 -4 4 -10 4 -5 0 -10
-5 -10 -11z"/>
<path d="M3517 4686 c-4 -10 -1 -13 9 -9 15 6 19 23 5 23 -5 0 -11 -7 -14 -14z"/>
<path d="M1940 4680 c0 -5 5 -10 10 -10 6 0 10 5 10 10 0 6 -4 10 -10 10 -5 0
-10 -4 -10 -10z"/>
<path d="M2130 4670 c0 -5 7 -10 16 -10 8 0 12 5 9 10 -3 6 -10 10 -16 10 -5
0 -9 -4 -9 -10z"/>
<path d="M2380 4650 c-14 -27 -6 -38 14 -18 8 9 11 20 6 28 -6 9 -11 7 -20
-10z"/>
<path d="M3523 4648 c-2 -5 10 -8 26 -8 17 0 31 4 31 9 0 11 -50 9 -57 -1z"/>
<path d="M2285 4630 c3 -5 8 -10 11 -10 2 0 4 5 4 10 0 6 -5 10 -11 10 -5 0
-7 -4 -4 -10z"/>
<path d="M2510 4631 c0 -6 4 -13 10 -16 6 -3 7 1 4 9 -7 18 -14 21 -14 7z"/>
<path d="M3560 4620 c-8 -5 -10 -10 -5 -10 6 0 17 5 25 10 8 5 11 10 5 10 -5
0 -17 -5 -25 -10z"/>
<path d="M2173 4546 c3 -7 -1 -25 -8 -40 -12 -23 -12 -27 5 -36 10 -5 27 -10
36 -10 17 0 17 1 2 16 -15 15 -14 18 6 38 l21 21 -22 3 c-13 2 -23 8 -23 13 0
5 -5 9 -11 9 -6 0 -9 -6 -6 -14z"/>
<path d="M2315 4530 c7 -22 2 -24 -25 -10 -13 7 -21 7 -25 0 -3 -5 3 -10 14
-10 30 0 26 -12 -11 -33 -28 -16 -30 -20 -16 -28 22 -12 42 -3 58 26 10 19 16
22 27 14 20 -17 17 25 -3 45 -21 21 -27 20 -19 -4z"/>
<path d="M1642 4370 c-7 -11 -8 -20 -3 -20 9 0 24 30 18 36 -1 2 -8 -6 -15
-16z"/>
<path d="M1710 4370 c0 -5 5 -10 10 -10 6 0 10 5 10 10 0 6 -4 10 -10 10 -5 0
-10 -4 -10 -10z"/>
<path d="M5241 4356 c2 -2 18 -6 34 -10 22 -5 26 -4 15 4 -14 9 -59 15 -49 6z"/>
<path d="M2332 4288 c-7 -7 -12 -18 -12 -24 0 -7 -10 -20 -22 -29 -13 -8 -22
-19 -20 -23 2 -7 -14 -10 -73 -15 -16 -1 -28 -6 -25 -12 3 -5 23 -8 45 -6 51
4 38 -11 -18 -20 -35 -6 -39 -8 -19 -14 26 -9 28 -18 5 -41 -25 -25 -45 -66
-39 -81 6 -14 1 -17 -46 -27 -16 -4 -27 -11 -25 -18 1 -6 -14 -22 -33 -35 -19
-13 -33 -25 -30 -26 4 -2 -20 -34 -48 -63 -23 -24 5 -15 36 11 17 14 35 25 42
25 6 0 9 4 5 9 -3 5 8 19 25 31 23 16 34 19 44 11 14 -12 36 4 36 26 0 10 11
8 40 -7 34 -17 40 -18 40 -5 0 8 5 15 10 15 13 0 13 -43 -1 -57 -6 -6 -9 -19
-7 -29 3 -15 7 -11 21 16 24 47 40 74 51 81 5 4 6 11 3 16 -9 14 63 80 94 88
14 3 37 17 52 31 30 28 45 30 61 9 6 -8 16 -11 23 -7 13 8 19 70 8 95 -4 9 -5
23 -2 31 4 9 -1 16 -11 18 -22 5 -64 -21 -55 -35 3 -5 2 -7 -4 -4 -5 3 -26 -5
-45 -18 -35 -24 -58 -20 -58 10 0 6 -8 28 -18 48 -14 29 -20 35 -30 25z m28
-68 c0 -5 -5 -10 -11 -10 -5 0 -7 5 -4 10 3 6 8 10 11 10 2 0 4 -4 4 -10z
m100 -50 c0 -5 -4 -10 -10 -10 -5 0 -10 5 -10 10 0 6 5 10 10 10 6 0 10 -4 10
-10z m75 0 c3 -5 -1 -10 -10 -10 -9 0 -13 5 -10 10 3 6 8 10 10 10 2 0 7 -4
10 -10z m-225 -114 c-6 -6 -18 -5 -32 1 -21 10 -21 10 9 9 19 -1 28 -5 23 -10z
m-80 -61 c11 -13 8 -15 -14 -15 -25 0 -33 10 -19 23 10 11 19 8 33 -8z"/>
<path d="M4205 4254 c-21 -16 -92 -16 -127 0 -15 7 -18 3 -18 -22 0 -17 5 -34
10 -37 6 -3 10 -1 10 6 0 7 3 9 7 5 5 -4 0 -13 -9 -20 -10 -8 -21 -37 -27 -77
-17 -100 -28 -130 -65 -168 -30 -31 -37 -47 -47 -111 -7 -41 -20 -106 -31
-145 -39 -147 -48 -193 -58 -295 -23 -229 -42 -303 -119 -475 -23 -51 -41
-133 -41 -191 0 -24 -9 -73 -21 -107 -34 -100 -48 -211 -37 -287 5 -36 10
-126 11 -200 2 -114 -1 -139 -15 -160 -22 -30 -27 -185 -5 -178 6 3 16 29 21
58 7 45 10 51 18 34 32 -59 81 -82 93 -44 12 39 47 21 104 -55 68 -90 95 -71
84 60 -10 121 20 161 113 153 l39 -3 8 -125 c5 -69 12 -127 17 -130 4 -3 10
-23 13 -45 7 -62 122 -384 132 -373 5 4 -16 99 -39 178 -10 35 -16 94 -16 162
l0 107 28 -15 c44 -23 75 -17 141 28 75 50 118 53 204 13 49 -23 57 -30 57
-54 0 -37 8 -43 34 -26 11 8 26 15 33 15 25 0 12 -16 -27 -33 l-41 -17 6 -58
c17 -167 33 -418 27 -424 -4 -4 -20 -1 -36 7 -20 11 -59 15 -135 14 -82 0
-100 -3 -81 -10 14 -6 45 -9 69 -6 52 6 170 -25 188 -49 9 -13 16 -14 25 -6 9
7 20 6 38 -3 14 -8 32 -14 40 -15 8 0 60 -23 115 -50 126 -63 152 -66 102 -10
-24 27 -55 40 -165 66 -41 9 -80 23 -87 31 -8 7 -19 13 -25 13 -13 0 -7 118
11 214 13 71 11 320 -2 333 -8 8 -8 21 -1 45 6 18 13 54 17 79 3 26 12 55 19
65 13 17 18 17 58 6 103 -32 129 -20 181 80 32 61 57 79 148 108 86 28 169 40
272 40 76 0 99 -4 161 -30 77 -32 137 -83 142 -122 4 -29 33 -138 40 -149 23
-38 61 70 68 191 6 115 -1 135 -67 169 l-49 24 -69 -16 -69 -17 -85 33 c-91
35 -115 60 -115 125 0 55 -35 62 -167 34 -28 -6 -50 -5 -70 3 -30 13 -93 80
-93 100 0 5 -23 57 -50 114 -34 70 -50 116 -50 143 0 72 -47 130 -118 147 -24
5 -44 11 -46 13 -1 1 -8 11 -15 20 -7 9 -21 51 -31 92 -11 41 -28 92 -39 114
-11 21 -23 56 -26 77 -4 22 -16 58 -25 80 -10 22 -26 72 -35 110 -10 39 -26
97 -36 130 -10 33 -28 105 -40 160 -29 136 -45 172 -101 231 -54 56 -81 101
-74 121 4 9 25 13 67 13 50 0 70 5 105 28 24 15 44 30 44 33 0 11 -193 100
-207 95 -7 -3 -13 -12 -13 -21 0 -9 -7 -30 -16 -48 l-17 -31 -25 49 c-14 28
-33 56 -43 63 -11 7 -19 20 -19 28 0 18 -10 17 -35 -2z m-65 -56 c0 -7 -4 -19
-9 -26 -6 -11 -9 -9 -14 7 -2 11 -2 22 1 25 10 10 22 6 22 -6z m97 -20 c-3 -8
-6 -5 -6 6 -1 11 2 17 5 13 3 -3 4 -12 1 -19z m-44 -25 c5 -25 3 -33 -8 -33
-15 0 -22 50 -8 63 8 9 9 8 16 -30z m-155 -234 c-2 -6 -8 -10 -13 -10 -5 0
-11 4 -13 10 -2 6 4 11 13 11 9 0 15 -5 13 -11z m422 -79 c0 -5 -2 -10 -4 -10
-3 0 -8 5 -11 10 -3 6 -1 10 4 10 6 0 11 -4 11 -10z m-410 -99 c0 -20 -17 -37
-27 -28 -7 8 7 47 18 47 5 0 9 -9 9 -19z m60 -40 c0 -27 -15 -49 -26 -39 -7 8
8 68 17 68 5 0 9 -13 9 -29z m330 -44 c0 -5 -4 -5 -10 -2 -5 3 -10 14 -10 23
0 15 2 15 10 2 5 -8 10 -19 10 -23z m-249 -18 c-8 -21 -10 -22 -16 -6 -10 23
2 54 16 40 6 -6 6 -18 0 -34z m189 -34 c0 -14 -4 -25 -10 -25 -5 0 -10 11 -10
25 0 14 5 25 10 25 6 0 10 -11 10 -25z m-56 -11 c3 -9 3 -20 0 -25 -3 -6 -1
-15 4 -22 5 -7 6 -21 2 -32 -5 -15 -10 -8 -19 33 -13 64 -13 62 -2 62 5 0 12
-7 15 -16z m-110 -916 c-8 -27 -12 -33 -19 -27 -7 8 7 49 17 49 5 0 6 -10 2
-22z m-98 -15 c-10 -10 -19 5 -10 18 6 11 8 11 12 0 2 -7 1 -15 -2 -18z m464
12 c11 -13 10 -14 -4 -9 -9 3 -16 10 -16 15 0 13 6 11 20 -6z m-200 -775 c0
-5 -2 -10 -4 -10 -3 0 -8 5 -11 10 -3 6 -1 10 4 10 6 0 11 -4 11 -10z m-212
-122 c7 -7 12 -18 12 -25 0 -10 -5 -10 -25 -1 -26 12 -34 38 -12 38 7 0 18 -5
25 -12z m2 -79 c0 -5 -4 -9 -10 -9 -5 0 -10 7 -10 16 0 8 5 12 10 9 6 -3 10
-10 10 -16z"/>
<path d="M2790 4240 c0 -5 4 -10 9 -10 6 0 13 5 16 10 3 6 -1 10 -9 10 -9 0
-16 -4 -16 -10z"/>
<path d="M2881 4234 c0 -11 3 -14 6 -6 3 7 2 16 -1 19 -3 4 -6 -2 -5 -13z"/>
<path d="M2916 4234 c-5 -14 -4 -15 9 -4 17 14 19 20 6 20 -5 0 -12 -7 -15
-16z"/>
<path d="M2118 4233 c-42 -11 -12 -20 55 -17 103 4 105 4 82 13 -11 4 -34 5
-52 0 -18 -4 -36 -3 -39 2 -5 9 -17 10 -46 2z"/>
<path d="M2660 4230 c20 -13 47 -13 55 0 4 6 -9 10 -32 10 -28 0 -34 -3 -23
-10z"/>
<path d="M1608 4223 c-10 -2 -18 -8 -18 -12 0 -11 49 -1 56 10 5 9 -8 10 -38
2z"/>
<path d="M1860 4220 c-23 -7 -23 -8 -3 -9 12 -1 25 4 28 9 3 6 5 10 3 9 -2 -1
-14 -5 -28 -9z"/>
<path d="M2048 4223 c7 -3 16 -2 19 1 4 3 -2 6 -13 5 -11 0 -14 -3 -6 -6z"/>
<path d="M2965 4220 c28 -12 45 -12 45 0 0 6 -15 10 -32 9 -28 0 -30 -2 -13
-9z"/>
<path d="M2720 4209 c0 -5 5 -7 10 -4 6 3 10 8 10 11 0 2 -4 4 -10 4 -5 0 -10
-5 -10 -11z"/>
<path d="M3121 4204 c0 -11 3 -14 6 -6 3 7 2 16 -1 19 -3 4 -6 -2 -5 -13z"/>
<path d="M3005 4190 c-3 -5 1 -10 10 -10 9 0 13 5 10 10 -3 6 -8 10 -10 10 -2
0 -7 -4 -10 -10z"/>
<path d="M5210 4180 c0 -5 7 -10 15 -10 8 0 15 5 15 10 0 6 -7 10 -15 10 -8 0
-15 -4 -15 -10z"/>
<path d="M4890 4149 c-11 -7 -4 -8 25 -3 50 8 58 14 19 14 -16 0 -36 -5 -44
-11z"/>
<path d="M3515 4140 c3 -5 8 -10 11 -10 2 0 4 5 4 10 0 6 -5 10 -11 10 -5 0
-7 -4 -4 -10z"/>
<path d="M5280 4115 c0 -8 5 -15 10 -15 6 0 10 7 10 15 0 8 -4 15 -10 15 -5 0
-10 -7 -10 -15z"/>
<path d="M3390 4079 c0 -5 5 -7 10 -4 6 3 10 8 10 11 0 2 -4 4 -10 4 -5 0 -10
-5 -10 -11z"/>
<path d="M3630 4060 c-9 -6 -10 -10 -3 -10 6 0 15 5 18 10 8 12 4 12 -15 0z"/>
<path d="M3645 3930 c-4 -6 -8 -23 -10 -37 -1 -14 -9 -29 -16 -34 -8 -5 -9 -9
-3 -9 6 0 19 10 30 21 14 16 16 23 6 26 -10 4 -10 8 -1 19 7 8 9 17 6 20 -3 3
-8 0 -12 -6z"/>
<path d="M4960 3930 c0 -12 33 -30 54 -30 24 0 19 14 -11 28 -32 15 -43 15
-43 2z"/>
<path d="M5120 3920 c-8 -5 -31 -10 -50 -11 -34 -1 -34 -1 13 -14 26 -7 54
-18 61 -24 18 -15 23 -6 18 29 -4 31 -16 37 -42 20z"/>
<path d="M2196 3884 c-9 -24 -7 -28 9 -14 17 14 20 30 6 30 -5 0 -12 -7 -15
-16z"/>
<path d="M4950 3875 c-17 -21 -7 -28 38 -31 20 0 52 -6 70 -12 41 -14 33 1
-19 33 -44 29 -71 31 -89 10z"/>
<path d="M3570 3849 c0 -11 5 -17 10 -14 6 3 10 13 10 21 0 8 -4 14 -10 14 -5
0 -10 -9 -10 -21z"/>
<path d="M3540 3825 c0 -8 4 -15 10 -15 5 0 7 7 4 15 -4 8 -8 15 -10 15 -2 0
-4 -7 -4 -15z"/>
<path d="M3478 3813 c7 -3 16 -2 19 1 4 3 -2 6 -13 5 -11 0 -14 -3 -6 -6z"/>
<path d="M3430 3765 c0 -8 7 -15 15 -15 8 0 15 4 15 9 0 5 -7 11 -15 15 -9 3
-15 0 -15 -9z"/>
<path d="M1760 3759 c0 -5 5 -7 10 -4 6 3 10 8 10 11 0 2 -4 4 -10 4 -5 0 -10
-5 -10 -11z"/>
<path d="M3438 3733 c7 -3 16 -2 19 1 4 3 -2 6 -13 5 -11 0 -14 -3 -6 -6z"/>
<path d="M3318 3723 c7 -3 16 -2 19 1 4 3 -2 6 -13 5 -11 0 -14 -3 -6 -6z"/>
<path d="M3437 3664 c-4 -4 -4 -10 -1 -15 6 -10 34 0 34 12 0 10 -24 12 -33 3z"/>
<path d="M3220 3640 c0 -5 5 -10 10 -10 6 0 10 5 10 10 0 6 -4 10 -10 10 -5 0
-10 -4 -10 -10z"/>
<path d="M258 3609 c3 -20 8 -27 14 -21 11 11 2 52 -11 52 -4 0 -6 -14 -3 -31z"/>
<path d="M2988 3633 c7 -3 16 -2 19 1 4 3 -2 6 -13 5 -11 0 -14 -3 -6 -6z"/>
<path d="M3385 3590 c3 -5 11 -10 16 -10 6 0 7 5 4 10 -3 6 -11 10 -16 10 -6
0 -7 -4 -4 -10z"/>
<path d="M3288 3583 c7 -3 16 -2 19 1 4 3 -2 6 -13 5 -11 0 -14 -3 -6 -6z"/>
<path d="M3340 3564 l-25 -15 25 7 c28 7 35 12 29 18 -2 2 -15 -2 -29 -10z"/>
<path d="M270 3558 c0 -8 11 -27 25 -42 25 -27 45 -27 45 0 0 8 5 14 10 14 19
0 10 18 -12 23 -13 3 -33 9 -45 12 -17 5 -23 3 -23 -7z"/>
<path d="M3391 3544 c0 -11 3 -14 6 -6 3 7 2 16 -1 19 -3 4 -6 -2 -5 -13z"/>
<path d="M3048 3543 c7 -3 16 -2 19 1 4 3 -2 6 -13 5 -11 0 -14 -3 -6 -6z"/>
<path d="M3015 3500 c-3 -5 -1 -10 4 -10 6 0 11 5 11 10 0 6 -2 10 -4 10 -3 0
-8 -4 -11 -10z"/>
<path d="M345 3470 c3 -5 8 -10 11 -10 2 0 4 5 4 10 0 6 -5 10 -11 10 -5 0 -7
-4 -4 -10z"/>
<path d="M460 3440 c0 -5 5 -10 10 -10 6 0 15 -10 20 -22 5 -13 9 -16 9 -8 0
16 -22 50 -33 50 -3 0 -6 -4 -6 -10z"/>
<path d="M3077 3430 c3 -11 9 -20 13 -20 5 0 6 9 3 20 -3 11 -9 20 -13 20 -5
0 -6 -9 -3 -20z"/>
<path d="M553 3415 c-17 -18 -16 -22 2 -22 8 0 15 9 15 19 0 21 -1 22 -17 3z"/>
<path d="M515 3401 c-3 -5 -1 -12 5 -16 5 -3 10 1 10 9 0 18 -6 21 -15 7z"/>
<path d="M0 3348 l0 -51 86 6 c47 3 91 10 97 16 7 5 26 11 42 13 l30 3 -43 23
c-51 27 -65 28 -35 3 l22 -19 -23 -4 c-33 -7 -87 2 -80 13 2 5 -12 7 -33 6
-30 -2 -37 1 -35 14 1 9 -4 19 -13 23 -12 4 -15 -4 -15 -46z"/>
<path d="M60 3392 c0 -4 18 -8 40 -9 22 -1 40 2 40 8 0 5 -18 9 -40 9 -22 0
-40 -4 -40 -8z"/>
<path d="M411 3374 c0 -11 3 -14 6 -6 3 7 2 16 -1 19 -3 4 -6 -2 -5 -13z"/>
<path d="M453 3309 c-5 -30 -13 -62 -18 -71 -5 -13 -3 -18 9 -18 9 0 16 6 16
14 0 8 8 17 17 20 14 6 15 9 4 16 -8 4 -11 15 -8 23 3 8 2 28 -2 43 -6 25 -8
22 -18 -27z"/>
<path d="M396 3325 c4 -8 8 -15 10 -15 2 0 4 7 4 15 0 8 -4 15 -10 15 -5 0 -7
-7 -4 -15z"/>
<path d="M745 3330 c-3 -5 -1 -10 4 -10 6 0 11 5 11 10 0 6 -2 10 -4 10 -3 0
-8 -4 -11 -10z"/>
<path d="M382 3260 c0 -14 2 -19 5 -12 2 6 2 18 0 25 -3 6 -5 1 -5 -13z"/>
<path d="M530 3280 c-6 -13 -5 -60 1 -60 13 0 16 14 8 40 -4 14 -8 23 -9 20z"/>
<path d="M3073 3262 c-3 -12 -9 -22 -14 -22 -5 0 -9 -4 -9 -10 0 -5 4 -10 8
-10 11 0 34 51 27 58 -3 4 -8 -4 -12 -16z"/>
<path d="M3108 3228 c-26 -29 -44 -55 -42 -57 6 -6 94 88 94 100 0 15 -4 11
-52 -43z"/>
<path d="M657 3262 c-9 -2 -15 -8 -12 -13 8 -12 45 -12 45 0 0 13 -12 18 -33
13z"/>
<path d="M720 3256 c0 -2 7 -6 15 -10 8 -3 15 -1 15 4 0 6 -7 10 -15 10 -8 0
-15 -2 -15 -4z"/>
<path d="M617 3243 c-4 -3 -7 -11 -7 -17 0 -6 5 -5 12 2 6 6 9 14 7 17 -3 3
-9 2 -12 -2z"/>
<path d="M43 3234 c-7 -3 -9 -12 -6 -20 3 -9 -2 -14 -16 -14 -12 0 -21 -4 -21
-10 0 -5 7 -10 16 -10 13 0 15 -7 9 -42 -4 -23 -13 -50 -19 -60 -8 -14 -8 -21
2 -27 7 -4 12 -21 10 -37 -2 -19 1 -28 9 -26 7 1 13 -3 13 -9 0 -6 -9 -8 -20
-4 -13 4 -20 2 -20 -7 0 -22 126 -16 180 8 57 26 102 78 98 112 -3 24 -8 26
-58 29 -102 6 -118 8 -126 16 -14 14 17 25 47 17 39 -12 112 -15 126 -7 6 4
15 3 18 -3 5 -8 11 -8 20 0 16 14 4 75 -15 76 -28 1 -175 15 -205 19 -16 2
-35 1 -42 -1z"/>
<path d="M478 3215 c-6 -14 -18 -25 -25 -25 -8 0 -11 -4 -8 -10 3 -5 -2 -21
-11 -35 -21 -32 -14 -103 13 -123 27 -20 66 -11 80 19 7 14 15 53 18 86 l5 61
-25 -11 c-26 -12 -34 -29 -12 -24 7 1 13 -13 15 -38 2 -30 -3 -46 -18 -63 -23
-24 -29 -26 -48 -14 -17 11 -33 70 -21 77 5 4 9 15 9 26 0 10 7 19 15 19 8 0
15 -5 15 -12 0 -26 9 1 15 45 7 52 1 60 -17 22z"/>
<path d="M360 3196 c0 -8 5 -18 10 -21 6 -3 10 3 10 14 0 12 -4 21 -10 21 -5
0 -10 -6 -10 -14z"/>
<path d="M600 3186 c0 -22 3 -27 11 -19 8 8 8 16 0 30 -9 16 -10 14 -11 -11z"/>
<path d="M636 3175 c-4 -14 -2 -33 3 -43 8 -13 10 -8 11 26 0 48 -5 54 -14 17z"/>
<path d="M1753 3177 c-58 -21 -74 -46 -82 -131 -4 -45 -13 -82 -22 -91 -8 -8
-52 -31 -98 -50 -86 -35 -127 -65 -140 -99 -9 -22 6 -115 21 -133 6 -7 8 -20
4 -28 -3 -9 3 -32 14 -53 25 -46 25 -78 0 -142 -30 -76 -27 -106 13 -126 42
-22 97 -34 124 -28 27 7 59 73 65 135 3 25 16 66 29 90 14 24 30 53 37 64 23
40 75 200 83 254 4 31 16 84 25 119 15 56 16 73 4 148 -13 92 -15 93 -77 71z
m-178 -379 c21 -9 25 -18 25 -55 0 -69 -44 -49 -56 26 -7 45 -6 46 31 29z"/>
<path d="M365 3147 c-4 -10 -5 -21 -1 -24 10 -10 18 4 13 24 -4 17 -4 17 -12
0z"/>
<path d="M3027 3140 c-9 -11 -13 -20 -8 -20 11 0 35 29 29 35 -2 2 -12 -4 -21
-15z"/>
<path d="M610 3130 c0 -5 5 -10 10 -10 6 0 10 5 10 10 0 6 -4 10 -10 10 -5 0
-10 -4 -10 -10z"/>
<path d="M2920 3101 c-6 -12 -7 -21 -1 -21 10 0 24 30 17 37 -2 3 -9 -5 -16
-16z"/>
<path d="M361 3078 c0 -13 7 -54 14 -93 11 -58 13 -63 14 -30 1 60 -11 145
-20 145 -5 0 -9 -10 -8 -22z"/>
<path d="M592 3076 c-12 -27 0 -46 29 -46 10 0 19 -6 21 -12 3 -7 7 -3 10 8 4
18 1 20 -25 16 -29 -5 -30 -4 -24 27 8 37 4 40 -11 7z"/>
<path d="M2374 3069 c-27 -35 -24 -65 4 -37 9 9 12 7 12 -9 0 -23 18 -33 60
-33 16 0 30 -4 32 -9 2 -4 14 -12 28 -16 20 -5 17 -2 -12 19 -20 14 -44 26
-53 26 -10 0 -13 5 -9 12 5 8 0 9 -14 6 -25 -7 -29 10 -9 31 10 11 9 13 -5 8
-9 -3 -18 -1 -20 5 -2 6 -8 5 -14 -3z"/>
<path d="M2906 3024 c-5 -14 -4 -15 9 -4 17 14 19 20 6 20 -5 0 -12 -7 -15
-16z"/>
<path d="M2870 2989 c0 -5 5 -7 10 -4 6 3 10 8 10 11 0 2 -4 4 -10 4 -5 0 -10
-5 -10 -11z"/>
<path d="M590 2925 c0 -8 2 -15 4 -15 2 0 6 7 10 15 3 8 1 15 -4 15 -6 0 -10
-7 -10 -15z"/>
<path d="M2565 2918 c11 -15 23 -28 28 -28 4 0 7 -6 7 -12 1 -24 35 -57 65
-62 l30 -6 -27 11 c-29 11 -35 23 -18 34 11 7 4 25 -10 25 -5 0 -7 -7 -3 -16
4 -12 2 -15 -8 -12 -8 3 -14 13 -14 23 0 9 -16 29 -35 44 l-34 26 19 -27z"/>
<path d="M2780 2895 c-7 -13 -21 -27 -30 -30 -21 -7 -57 -45 -43 -45 11 0 103
83 103 93 0 16 -17 5 -30 -18z"/>
<path d="M1 2783 c-1 -57 1 -103 3 -103 3 0 22 10 43 23 l38 22 -32 3 c-31 3
-32 4 -38 70 -10 101 -13 97 -14 -15z"/>
<path d="M2680 2850 c0 -5 4 -10 9 -10 6 0 13 5 16 10 3 6 -1 10 -9 10 -9 0
-16 -4 -16 -10z"/>
<path d="M414 2792 c4 -62 20 -84 55 -80 19 2 27 9 28 28 3 25 3 25 -7 3 -10
-24 -34 -30 -46 -12 -4 6 -13 35 -20 63 l-13 51 3 -53z"/>
<path d="M507 2793 c-4 -3 -7 -11 -7 -17 0 -6 5 -5 12 2 6 6 9 14 7 17 -3 3
-9 2 -12 -2z"/>
<path d="M6305 2390 c-3 -5 -1 -10 4 -10 6 0 11 5 11 10 0 6 -2 10 -4 10 -3 0
-8 -4 -11 -10z"/>
<path d="M6282 2357 c-27 -32 19 -216 54 -217 7 0 14 -7 17 -15 7 -18 79 -55
107 -55 12 0 25 -10 30 -22 8 -19 9 -18 4 10 -4 24 -2 32 9 32 10 0 14 12 14
43 0 30 -2 36 -7 22 -6 -16 -9 -12 -13 20 -3 33 -4 32 -2 -8 1 -26 -2 -50 -6
-53 -5 -3 -9 2 -9 11 0 9 -13 30 -30 47 -16 16 -30 37 -30 47 0 9 -6 23 -12
29 -10 10 -10 15 2 23 13 9 13 10 0 6 -8 -2 -19 2 -25 10 -5 7 -30 15 -55 17
-25 3 -47 5 -49 5 -3 1 0 6 7 13 6 6 31 11 54 10 40 -1 41 0 20 11 -12 7 -19
16 -16 20 4 4 -6 7 -23 7 -17 0 -35 -6 -41 -13z m38 -7 c0 -5 -4 -10 -9 -10
-6 0 -13 5 -16 10 -3 6 1 10 9 10 9 0 16 -4 16 -10z m39 -100 c8 -24 7 -30 -3
-30 -14 0 -29 38 -20 52 8 13 11 10 23 -22z m-42 -27 c-3 -10 -5 -4 -5 12 0
17 2 24 5 18 2 -7 2 -21 0 -30z"/>
<path d="M1120 2152 c0 -7 27 -67 60 -133 33 -66 60 -126 60 -135 0 -15 26
-31 36 -21 3 2 -22 54 -56 115 -33 60 -60 112 -60 115 0 4 -9 21 -20 39 -11
18 -20 27 -20 20z"/>
<path d="M5248 2103 c7 -3 16 -2 19 1 4 3 -2 6 -13 5 -11 0 -14 -3 -6 -6z"/>
<path d="M5260 2085 c-22 -13 -23 -14 -5 -14 11 0 29 6 39 14 26 20 0 20 -34
0z"/>
<path d="M5140 2080 c-13 -8 -13 -10 2 -10 9 0 20 5 23 10 8 13 -5 13 -25 0z"/>
<path d="M5165 2060 l-30 -8 33 -1 c17 0 32 4 32 9 0 6 -1 9 -2 9 -2 -1 -16
-5 -33 -9z"/>
<path d="M5700 1952 c0 -7 7 -20 15 -28 19 -20 20 -4 0 22 -9 12 -14 14 -15 6z"/>
<path d="M3040 1904 c0 -8 5 -12 10 -9 6 3 10 10 10 16 0 5 -4 9 -10 9 -5 0
-10 -7 -10 -16z"/>
<path d="M2945 1900 c27 -12 43 -12 25 0 -8 5 -22 9 -30 9 -10 0 -8 -3 5 -9z"/>
<path d="M1593 1873 c-18 -7 -16 -30 3 -37 27 -10 84 -7 84 5 0 8 -14 10 -40
6 -32 -4 -40 -2 -40 10 0 13 10 15 51 11 29 -3 45 -2 37 3 -14 9 -75 11 -95 2z"/>
<path d="M2818 1873 c-10 -2 -18 -9 -18 -15 0 -13 30 -37 46 -38 6 0 9 12 6
30 -2 17 -7 29 -11 29 -3 -1 -14 -3 -23 -6z"/>
<path d="M1361 1813 c13 -10 30 -25 37 -35 25 -35 93 -11 78 27 -6 17 -36 21
-36 4 0 -8 -4 -8 -12 -2 -7 6 -31 13 -52 16 -39 6 -39 6 -15 -10z"/>
<path d="M2408 1823 c7 -3 16 -2 19 1 4 3 -2 6 -13 5 -11 0 -14 -3 -6 -6z"/>
<path d="M2720 1820 c0 -5 5 -10 10 -10 6 0 10 5 10 10 0 6 -4 10 -10 10 -5 0
-10 -4 -10 -10z"/>
<path d="M6319 1823 c-15 -2 -44 -21 -66 -41 -50 -48 -73 -58 -180 -78 -48 -9
-99 -22 -113 -30 -34 -18 -19 -17 75 5 102 24 155 33 155 27 0 -8 -82 -130
-118 -175 -28 -34 -31 -41 -13 -32 23 13 43 38 130 167 34 51 72 93 107 118
30 22 54 41 54 43 0 2 -1 2 -2 2 -2 -1 -15 -4 -29 -6z"/>
<path d="M1550 1795 c-17 -31 2 -87 22 -67 18 18 29 14 27 -10 -4 -42 1 -58
16 -58 8 0 15 -7 15 -15 0 -21 9 -19 31 8 23 28 24 76 2 93 -17 13 -17 13 0
14 12 0 17 8 17 30 0 30 0 30 -58 30 -52 0 -60 -3 -72 -25z"/>
<path d="M2790 1805 c0 -19 17 -28 34 -18 12 6 10 10 -10 20 -19 9 -24 8 -24
-2z"/>
<path d="M2750 1780 c0 -5 5 -10 11 -10 5 0 7 5 4 10 -3 6 -8 10 -11 10 -2 0
-4 -4 -4 -10z"/>
<path d="M5984 1735 c36 -19 42 -19 26 0 -7 8 -22 15 -34 15 -18 0 -17 -2 8
-15z"/>
<path d="M2705 1730 c-3 -5 -25 -10 -49 -10 -48 0 -96 -19 -96 -37 0 -8 -14
-13 -38 -13 -21 0 -42 -3 -46 -7 -8 -8 -21 -11 -98 -19 -32 -4 -58 -10 -58
-15 0 -10 199 -10 271 0 47 6 60 4 79 -11 12 -10 26 -15 31 -12 10 6 -10 45
-29 57 -10 7 -4 17 25 42 21 19 33 34 26 35 -6 0 -15 -4 -18 -10z m-72 -47
c-7 -2 -21 -2 -30 0 -10 3 -4 5 12 5 17 0 24 -2 18 -5z"/>
<path d="M5890 1729 c0 -5 14 -9 30 -9 17 0 30 4 30 8 0 5 -13 9 -30 10 -16 0
-30 -4 -30 -9z"/>
<path d="M1238 1663 c7 -3 16 -2 19 1 4 3 -2 6 -13 5 -11 0 -14 -3 -6 -6z"/>
<path d="M2080 1630 c0 -5 18 -10 40 -10 22 0 40 5 40 10 0 6 -18 10 -40 10
-22 0 -40 -4 -40 -10z"/>
<path d="M2720 1604 c0 -8 5 -12 10 -9 6 4 8 11 5 16 -9 14 -15 11 -15 -7z"/>
<path d="M2640 1590 c0 -5 -18 -10 -40 -10 -29 0 -40 -4 -40 -15 0 -11 11 -15
40 -15 29 0 40 4 40 15 0 8 7 15 16 15 8 0 12 5 9 10 -3 6 -10 10 -16 10 -5 0
-9 -4 -9 -10z"/>
<path d="M2159 1585 c-4 -3 -5 -15 -2 -26 4 -14 14 -19 43 -19 35 0 71 23 57
36 -9 9 -91 17 -98 9z"/>
<path d="M2448 1583 c6 -2 18 -2 25 0 6 3 1 5 -13 5 -14 0 -19 -2 -12 -5z"/>
<path d="M2755 1580 c-3 -5 -16 -10 -28 -11 -12 0 -16 -3 -9 -6 8 -3 12 -26
12 -64 0 -42 -3 -57 -12 -55 -7 3 -64 7 -125 10 -109 6 -113 6 -113 -14 0 -15
7 -20 29 -20 25 0 29 -4 37 -42 8 -38 14 -46 59 -68 67 -33 170 -36 170 -5 0
13 6 20 18 19 9 -1 17 5 17 13 0 8 -4 11 -10 8 -6 -4 -10 10 -9 37 1 39 2 40
8 13 7 -26 8 -22 15 30 4 33 11 70 16 82 7 18 5 25 -10 33 -11 6 -19 14 -19
18 4 22 -3 32 -20 32 -11 0 -23 -4 -26 -10z m-115 -170 c0 -5 -18 -10 -40 -10
-22 0 -40 5 -40 10 0 6 18 10 40 10 22 0 40 -4 40 -10z m90 -2 c0 -7 -4 -19
-9 -26 -6 -11 -9 -9 -14 7 -2 11 -2 22 1 25 10 10 22 6 22 -6z m-10 -97 c0 -5
-9 -7 -20 -4 -11 3 -20 7 -20 9 0 2 9 4 20 4 11 0 20 -4 20 -9z"/>
<path d="M1928 1573 c7 -3 16 -2 19 1 4 3 -2 6 -13 5 -11 0 -14 -3 -6 -6z"/>
<path d="M1285 1560 c-3 -5 3 -10 15 -10 12 0 18 5 15 10 -3 6 -10 10 -15 10
-5 0 -12 -4 -15 -10z"/>
<path d="M2043 1553 c-29 -3 -43 -9 -43 -19 0 -19 113 -20 129 -1 14 17 4 28
-23 25 -12 -1 -40 -3 -63 -5z"/>
<path d="M5940 1551 c-54 -6 -55 -6 -58 -41 -3 -27 -1 -32 9 -23 6 6 19 9 28
6 14 -4 13 -2 -1 10 -26 21 -23 24 32 32 28 4 50 11 50 16 0 5 -1 8 -2 7 -2
-1 -28 -4 -58 -7z"/>
<path d="M1920 1510 c0 -5 -13 -10 -30 -10 -16 0 -30 -4 -30 -10 0 -5 9 -10
20 -10 21 0 40 -27 40 -58 0 -21 42 -44 65 -36 8 4 15 1 15 -5 0 -6 18 -11 41
-11 24 0 38 4 34 10 -3 6 -21 10 -39 10 -36 0 -56 28 -56 77 0 26 -24 52 -47
53 -7 0 -13 -4 -13 -10z"/>
<path d="M2000 1455 l0 -45 40 0 40 0 0 45 0 45 -40 0 -40 0 0 -45z"/>
<path d="M2240 1484 c0 -8 5 -12 10 -9 6 3 10 10 10 16 0 5 -4 9 -10 9 -5 0
-10 -7 -10 -16z"/>
<path d="M6106 1464 c-9 -25 -7 -41 7 -47 9 -3 12 5 9 29 -5 38 -7 41 -16 18z"/>
<path d="M2990 1460 c0 -5 5 -10 10 -10 6 0 10 5 10 10 0 6 -4 10 -10 10 -5 0
-10 -4 -10 -10z"/>
<path d="M5878 1460 c-4 -8 -9 -28 -11 -45 -3 -16 -8 -48 -11 -70 l-7 -40 21
49 c12 29 20 64 18 85 -2 22 -6 30 -10 21z"/>
<path d="M6080 1381 c0 -40 -5 -81 -10 -91 -8 -16 -7 -18 4 -14 17 7 30 85 21
134 -10 57 -15 47 -15 -29z"/>
<path d="M2210 1400 c0 -5 11 -10 25 -10 14 0 25 5 25 10 0 6 -11 10 -25 10
-14 0 -25 -4 -25 -10z"/>
<path d="M5952 1377 c-33 -34 -41 -78 -20 -119 16 -33 28 -19 22 25 -7 51 11
73 51 63 31 -8 32 -28 3 -75 l-23 -36 32 25 c35 28 35 53 2 102 -11 14 -19 31
-19 37 0 19 -15 12 -48 -22z m8 -27 c0 -5 -5 -10 -11 -10 -5 0 -7 5 -4 10 3 6
8 10 11 10 2 0 4 -4 4 -10z"/>
<path d="M4248 1302 c-12 -5 -15 -11 -9 -21 6 -9 4 -19 -5 -29 -18 -17 -10
-29 8 -15 20 16 68 22 68 9 0 -8 2 -8 8 0 4 6 22 15 40 19 41 9 32 19 -30 34
-52 12 -56 12 -80 3z"/>
<path d="M6090 1251 c0 -6 5 -13 10 -16 6 -3 10 1 10 9 0 9 -4 16 -10 16 -5 0
-10 -4 -10 -9z"/>
<path d="M4258 1223 c7 -3 16 -2 19 1 4 3 -2 6 -13 5 -11 0 -14 -3 -6 -6z"/>
<path d="M4290 1180 c0 -5 7 -10 16 -10 8 0 12 5 9 10 -3 6 -10 10 -16 10 -5
0 -9 -4 -9 -10z"/>
<path d="M4552 1104 c-7 -8 -8 -14 -3 -14 10 0 25 19 20 25 -2 1 -10 -3 -17
-11z"/>
<path d="M5831 1104 c-15 -18 -6 -33 10 -17 6 6 18 9 25 6 8 -3 14 1 14 11 0
20 -31 20 -49 0z"/>
<path d="M5965 1075 c-36 -18 -38 -20 -16 -23 14 -2 32 4 44 17 29 28 19 30
-28 6z"/>
<path d="M5029 1079 c-10 -6 -7 -9 14 -9 29 0 35 5 14 13 -8 3 -20 1 -28 -4z"/>
<path d="M5110 1060 c-18 -12 -2 -12 25 0 13 6 15 9 5 9 -8 0 -22 -4 -30 -9z"/>
<path d="M5225 1040 c3 -5 18 -10 33 -9 24 0 25 1 7 9 -28 12 -47 12 -40 0z"/>
<path d="M5178 1033 c12 -2 22 -11 22 -19 0 -15 35 -20 44 -5 7 10 -48 32 -73
30 -9 -1 -6 -4 7 -6z"/>
<path d="M5287 1024 c-4 -4 -7 -22 -7 -40 0 -18 -4 -36 -10 -39 -36 -22 44
-59 131 -59 70 -1 90 12 52 32 -20 11 -85 4 -94 -9 -3 -5 -23 0 -45 11 -35 17
-36 19 -13 20 14 0 31 -6 37 -12 10 -10 15 -10 20 -1 4 6 20 15 35 18 26 7 26
8 10 21 -10 7 -25 13 -33 13 -11 0 -10 -3 4 -14 14 -11 16 -15 5 -15 -21 1
-52 27 -44 39 8 14 42 14 50 1 3 -5 16 -10 28 -9 16 0 12 5 -19 18 -51 23 -98
34 -107 25z"/>
<path d="M5812 1010 c0 -14 2 -19 5 -12 2 6 2 18 0 25 -3 6 -5 1 -5 -13z"/>
<path d="M5200 963 c0 -13 5 -23 10 -23 13 0 13 11 0 30 -8 12 -10 11 -10 -7z"/>
<path d="M5820 947 c0 -20 4 -37 10 -37 5 0 7 14 3 33 -8 45 -13 47 -13 4z"/>
<path d="M7110 949 c0 -5 5 -7 10 -4 6 3 10 8 10 11 0 2 -4 4 -10 4 -5 0 -10
-5 -10 -11z"/>
<path d="M5555 910 c3 -5 10 -10 16 -10 5 0 9 5 9 10 0 6 -7 10 -16 10 -8 0
-12 -4 -9 -10z"/>
<path d="M4618 897 c-16 -6 -28 -15 -28 -19 0 -5 12 -2 28 5 15 8 34 17 42 20
13 5 13 5 0 5 -8 0 -27 -5 -42 -11z"/>
<path d="M4673 883 c9 -2 25 -2 35 0 9 3 1 5 -18 5 -19 0 -27 -2 -17 -5z"/>
<path d="M4800 860 c0 -19 4 -20 38 -14 44 8 54 14 23 14 -12 0 -31 5 -42 10
-16 9 -19 7 -19 -10z"/>
<path d="M4925 870 c-18 -8 -17 -9 8 -9 15 -1 27 4 27 9 0 12 -8 12 -35 0z"/>
<path d="M4520 834 c-13 -13 -20 -24 -15 -24 12 1 55 35 55 44 0 12 -16 4 -40
-20z"/>
<path d="M4980 849 c0 -5 5 -7 10 -4 6 3 10 8 10 11 0 2 -4 4 -10 4 -5 0 -10
-5 -10 -11z"/>
<path d="M4470 790 c0 -5 5 -10 10 -10 6 0 10 5 10 10 0 6 -4 10 -10 10 -5 0
-10 -4 -10 -10z"/>
<path d="M4863 773 c9 -2 23 -2 30 0 6 3 -1 5 -18 5 -16 0 -22 -2 -12 -5z"/>
<path d="M4800 734 c0 -8 5 -12 10 -9 6 3 10 10 10 16 0 5 -4 9 -10 9 -5 0
-10 -7 -10 -16z"/>
<path d="M4598 693 c23 -2 61 -2 85 0 23 2 4 4 -43 4 -47 0 -66 -2 -42 -4z"/>
<path d="M4748 693 c12 -2 30 -2 40 0 9 3 -1 5 -23 4 -22 0 -30 -2 -17 -4z"/>
<path d="M7045 419 c4 -5 19 -9 35 -9 16 0 32 -4 35 -10 3 -5 16 -10 28 -10
21 1 21 1 -3 14 -32 17 -103 28 -95 15z"/>
<path d="M7053 383 c9 -2 23 -2 30 0 6 3 -1 5 -18 5 -16 0 -22 -2 -12 -5z"/>
<path d="M7200 375 c0 -8 2 -15 4 -15 2 0 6 7 10 15 3 8 1 15 -4 15 -6 0 -10
-7 -10 -15z"/>
<path d="M7155 370 c4 -6 11 -8 16 -5 14 9 11 15 -7 15 -8 0 -12 -5 -9 -10z"/>
<path d="M7280 360 c0 -5 7 -10 15 -10 9 0 18 -7 21 -15 4 -8 15 -15 26 -15
17 0 18 -3 9 -14 -8 -10 -9 -16 -1 -21 11 -7 31 34 23 48 -2 4 -13 7 -24 7
-11 0 -22 7 -25 15 -7 17 -44 21 -44 5z"/>
<path d="M4230 350 c-11 -7 -4 -10 25 -10 29 0 36 3 25 10 -8 5 -19 10 -25 10
-5 0 -17 -5 -25 -10z"/>
<path d="M4135 310 c-3 -5 1 -10 9 -10 9 0 16 5 16 10 0 6 -4 10 -9 10 -6 0
-13 -4 -16 -10z"/>
<path d="M7070 256 c0 -9 5 -16 10 -16 6 0 10 4 10 9 0 6 -4 13 -10 16 -5 3
-10 -1 -10 -9z"/>
<path d="M7370 246 c0 -2 7 -9 15 -16 12 -10 15 -10 15 4 0 9 -7 16 -15 16 -8
0 -15 -2 -15 -4z"/>
<path d="M7098 213 c7 -3 16 -2 19 1 4 3 -2 6 -13 5 -11 0 -14 -3 -6 -6z"/>
<path d="M7040 184 c0 -8 5 -12 10 -9 6 3 10 10 10 16 0 5 -4 9 -10 9 -5 0
-10 -7 -10 -16z"/>
<path d="M7280 170 c0 -5 5 -10 11 -10 5 0 7 5 4 10 -3 6 -8 10 -11 10 -2 0
-4 -4 -4 -10z"/>
<path d="M3580 150 c-13 -8 -13 -10 2 -10 9 0 18 -4 20 -10 4 -12 48 -1 48 12
0 6 -11 7 -24 4 -13 -3 -26 -2 -28 4 -2 6 -8 6 -18 0z"/>
<path d="M2103 100 c-61 -20 -72 -28 -96 -69 l-18 -31 45 0 c28 0 46 5 46 11
0 13 50 64 70 71 7 2 11 11 9 20 -4 14 -9 14 -56 -2z"/>
<path d="M3548 103 c7 -3 16 -2 19 1 4 3 -2 6 -13 5 -11 0 -14 -3 -6 -6z"/>
</g>
</svg>
